<svg xmlns="http://www.w3.org/2000/svg" width="61.031" height="39" viewBox="0 0 61.031 39">
  <metadata><?xpacket begin="﻿" id="W5M0MpCehiHzreSzNTczkc9d"?>
<x:xmpmeta xmlns:x="adobe:ns:meta/" x:xmptk="Adobe XMP Core 5.6-c140 79.160451, 2017/05/06-01:08:21        ">
   <rdf:RDF xmlns:rdf="http://www.w3.org/1999/02/22-rdf-syntax-ns#">
      <rdf:Description rdf:about=""/>
   </rdf:RDF>
</x:xmpmeta>
                                                                                                    
                                                                                                    
                                                                                                    
                                                                                                    
                                                                                                    
                                                                                                    
                                                                                                    
                                                                                                    
                                                                                                    
                                                                                                    
                                                                                                    
                                                                                                    
                                                                                                    
                                                                                                    
                                                                                                    
                                                                                                    
                                                                                                    
                                                                                                    
                                                                                                    
                                                                                                    
                           
<?xpacket end="w"?></metadata>
<defs>
    <style>
      .cls-1 {
        fill: #20aa97;
        fill-rule: evenodd;
      }
    </style>
  </defs>
  <path class="cls-1" d="M418.682,1814.54h-0.225a6.425,6.425,0,0,1-4.438-1.66,12.78,12.78,0,0,1-2.533-3.37c0-.01,0-0.01-0.007-0.01a19.1,19.1,0,0,1-1.873-7.28v-1.05a7.145,7.145,0,0,1,4.987-6.44,10.119,10.119,0,0,1,3.865-.72,10.489,10.489,0,0,1,3.881.73,7.215,7.215,0,0,1,4.968,6.37l0,1.08a17.018,17.018,0,0,1-1.762,7.31,9.1,9.1,0,0,1-2.539,3.38A6.5,6.5,0,0,1,418.682,1814.54Zm-5.873-5.69a11.137,11.137,0,0,0,2.225,2.96,4.978,4.978,0,0,0,3.423,1.25h0.225a5,5,0,0,0,3.342-1.28,7.726,7.726,0,0,0,2.172-2.88,15.591,15.591,0,0,0,1.638-6.71v-1.02a5.755,5.755,0,0,0-4.029-5.06,9.155,9.155,0,0,0-3.348-.63,8.605,8.605,0,0,0-3.333.63,5.665,5.665,0,0,0-4.045,5.12l0,0.96A17.553,17.553,0,0,0,412.809,1808.85Zm19.172,24.16H405.159a4.216,4.216,0,0,1-3.954-2.72,0.541,0.541,0,0,1-.03-0.1c-0.116-.46-0.231-0.92-0.346-1.5a0.739,0.739,0,0,1-.014-0.14v-4.4a4.928,4.928,0,0,1,2.092-3.97,7.046,7.046,0,0,1,2.387-1.25l5.576-2.12a0.475,0.475,0,0,1,.165-0.04l1.69-.23a0.645,0.645,0,0,1,.276.02l0.45,0.11a3.26,3.26,0,0,1,1.7,1.1,1.178,1.178,0,0,1,.251.36c0.61,0.79,1.16,1.57,1.69,2.33,0.471,0.66.957,1.36,1.454,2.01l2.584-3.6a0.8,0.8,0,0,1,.186-0.18l0.025-.03a4.43,4.43,0,0,1,.768-1.01l0.226-.22a0.176,0.176,0,0,1,.068-0.06,3.961,3.961,0,0,1,4.108-.33l5.5,2.02a6.4,6.4,0,0,1,2.221,1.12,4.431,4.431,0,0,1,2.094,4.19v4.07a3.987,3.987,0,0,1-.416,1.9A4.283,4.283,0,0,1,431.981,1833.01Zm-29.387-3.23a2.734,2.734,0,0,0,2.565,1.75h26.822a2.841,2.841,0,0,0,2.583-1.79,2.615,2.615,0,0,0,.286-1.3v-4.18a0.782,0.782,0,0,1,.043-0.25,3.087,3.087,0,0,0-1.541-2.64l-0.028-.03a5.2,5.2,0,0,0-1.771-.88l-5.574-2.04a2.59,2.59,0,0,0-2.64.09l-0.191.19a2.792,2.792,0,0,0-.538.71,0.833,0.833,0,0,1-.137.19,0.947,0.947,0,0,1-.262.29l-3.042,4.24a0.733,0.733,0,0,1-1.175.03l-0.451-.56c-0.582-.76-1.131-1.54-1.661-2.29s-1.048-1.49-1.594-2.21a1.309,1.309,0,0,1-.21-0.31,1.91,1.91,0,0,0-.95-0.68l-0.348-.09-1.466.2-5.555,2.11a5.918,5.918,0,0,0-1.943,1.01,3.472,3.472,0,0,0-1.527,2.77v4.36C402.391,1828.97,402.492,1829.38,402.594,1829.78Zm32.3-5.75h0Zm0.036-.1h0Zm2.274-11.59h-0.147a4.447,4.447,0,0,1-3.067-1.15,8.673,8.673,0,0,1-1.711-2.28,0.061,0.061,0,0,1-.007-0.01,12.747,12.747,0,0,1-1.247-4.84v-0.7a4.925,4.925,0,0,1,3.42-4.45,6.86,6.86,0,0,1,2.613-.49,7.2,7.2,0,0,1,2.627.5,4.958,4.958,0,0,1,3.4,4.38l0,0.72a11.356,11.356,0,0,1-1.175,4.88,6.192,6.192,0,0,1-1.716,2.29A4.509,4.509,0,0,1,437.2,1812.34Zm-3.6-4.08a7.14,7.14,0,0,0,1.4,1.86,3.007,3.007,0,0,0,2.052.74H437.2a3.011,3.011,0,0,0,2.011-.77,4.894,4.894,0,0,0,1.349-1.78,9.97,9.97,0,0,0,1.05-4.29v-0.66a3.479,3.479,0,0,0-2.463-3.06,5.665,5.665,0,0,0-2.094-.4,5.328,5.328,0,0,0-2.079.39,3.427,3.427,0,0,0-2.481,3.13l0,0.6A11.243,11.243,0,0,0,433.6,1808.26Zm12.282,16.51h-9.652a0.74,0.74,0,0,1,0-1.48h9.652a1.59,1.59,0,0,0,1.447-1,1.522,1.522,0,0,0,.168-0.76v-2.72a0.714,0.714,0,0,1,.033-0.22,1.8,1.8,0,0,0-.9-1.46,3,3,0,0,0-1.094-.56l-3.656-1.34a1.414,1.414,0,0,0-1.464.01l-0.113.12a1.7,1.7,0,0,0-.3.39,0.742,0.742,0,0,1-.1.16,1.155,1.155,0,0,1-.2.22l-1.967,2.74a0.745,0.745,0,0,1-.581.31,0.777,0.777,0,0,1-.595-0.28l-0.294-.37c-0.382-.49-0.737-1-1.092-1.5-0.337-.48-0.675-0.96-1.029-1.42a1.05,1.05,0,0,1-.151-0.23,1.055,1.055,0,0,0-.459-0.34l-0.19-.04-0.88.11-3.6,1.37a3.8,3.8,0,0,0-1.2.62,2.54,2.54,0,0,0-.668.75,0.738,0.738,0,0,1-1.288-.72,3.9,3.9,0,0,1,1.046-1.19,4.916,4.916,0,0,1,1.643-.86l3.618-1.38a0.924,0.924,0,0,1,.165-0.04l1.1-.15a0.855,0.855,0,0,1,.276.02l0.294,0.07a2.371,2.371,0,0,1,1.225.79,0.89,0.89,0,0,1,.2.28,0.07,0.07,0,0,1,.008.01c0.375,0.49.731,0.99,1.087,1.5,0.242,0.34.485,0.69,0.733,1.03l1.482-2.07a0.633,0.633,0,0,1,.141-0.15,3.473,3.473,0,0,1,.525-0.68l0.148-.14a0.349,0.349,0,0,1,.068-0.07,2.812,2.812,0,0,1,2.934-.24l3.583,1.31a4.53,4.53,0,0,1,1.531.78,3.124,3.124,0,0,1,1.454,2.95v2.63a2.862,2.862,0,0,1-.3,1.36A3.052,3.052,0,0,1,445.881,1824.77Zm1.693-6.29h0Zm-7.717-2.54a0.016,0.016,0,0,0,0,.01,0.016,0.016,0,0,1,0-.01h0Zm-4.634-1.33h0Zm-35.289-2.27h-0.147a4.5,4.5,0,0,1-2.991-1.15,6.241,6.241,0,0,1-1.739-2.33,11.3,11.3,0,0,1-1.156-4.84v-0.66a4.993,4.993,0,0,1,3.42-4.45,7.281,7.281,0,0,1,2.613-.49,6.8,6.8,0,0,1,2.627.5,4.89,4.89,0,0,1,3.4,4.38l0,0.72c0,0.01,0,.02,0,0.04a12.747,12.747,0,0,1-1.247,4.84,8.591,8.591,0,0,1-1.69,2.26A4.453,4.453,0,0,1,399.934,1812.34Zm0-12.44a5.739,5.739,0,0,0-2.08.39,3.513,3.513,0,0,0-2.48,3.13l0,0.6a9.832,9.832,0,0,0,1.031,4.24,4.876,4.876,0,0,0,1.372,1.83,2.993,2.993,0,0,0,2.007.77h0.147a3.007,3.007,0,0,0,2.08-.77,7.02,7.02,0,0,0,1.379-1.84,11.255,11.255,0,0,0,1.1-4.25v-0.64a3.393,3.393,0,0,0-2.464-3.06A5.281,5.281,0,0,0,399.934,1799.9Zm5.295,4.12h0Zm-4.468,20.75h-9.653a3.083,3.083,0,0,1-2.818-1.93,2.817,2.817,0,0,1-.273-1.31v-2.63a3.155,3.155,0,0,1,1.482-2.97,4.628,4.628,0,0,1,1.554-.78l3.552-1.3a2.823,2.823,0,0,1,2.914.25,0.349,0.349,0,0,1,.068.07l0.147,0.14a3.417,3.417,0,0,1,.526.68,0.633,0.633,0,0,1,.141.15l1.482,2.07c0.247-.34.49-0.69,0.733-1.03,0.356-.51.712-1.01,1.087-1.5,0-.01.006-0.01,0.009-0.01a1.014,1.014,0,0,1,.2-0.28,2.339,2.339,0,0,1,1.259-.79l0.26-.07a0.853,0.853,0,0,1,.276-0.02l1.1,0.15a0.9,0.9,0,0,1,.165.04l3.678,1.4a4.82,4.82,0,0,1,1.6.85,3.875,3.875,0,0,1,1.033,1.18,0.738,0.738,0,0,1-1.288.72,2.526,2.526,0,0,0-.654-0.74,3.714,3.714,0,0,0-1.152-.61l-3.657-1.39-0.879-.11-0.157.04a0.948,0.948,0,0,0-.492.34,1.414,1.414,0,0,1-.152.23c-0.354.46-.691,0.94-1.029,1.42-0.355.5-.71,1.01-1.083,1.49l-0.3.38a0.783,0.783,0,0,1-.6.28,0.747,0.747,0,0,1-.581-0.31l-1.964-2.74a0.865,0.865,0,0,1-.2-0.22,1,1,0,0,1-.1-0.15,1.521,1.521,0,0,0-.306-0.4l-0.111-.12a1.388,1.388,0,0,0-1.446-.01l-3.623,1.33a3.085,3.085,0,0,0-1.118.54,1.848,1.848,0,0,0-.931,1.49,0.745,0.745,0,0,1,.032.22v2.72a1.4,1.4,0,0,0,.143.7,1.621,1.621,0,0,0,1.472,1.06h9.653A0.74,0.74,0,0,1,400.761,1824.77Zm-11.346-6.29h0Zm7.717-2.54v0Zm4.634-1.33h0Zm6.9,13.08h-3.442a0.735,0.735,0,1,1,0-1.47h3.442A0.735,0.735,0,1,1,408.671,1827.69Zm36.891-6.64h-2.4a0.74,0.74,0,0,1,0-1.48h2.4A0.74,0.74,0,0,1,445.562,1821.05Zm-51.647,0h-2.4a0.74,0.74,0,0,1,0-1.48h2.4A0.74,0.74,0,0,1,393.915,1821.05Z" transform="translate(-387.969 -1794)"/>
</svg>
