<svg xmlns="http://www.w3.org/2000/svg" width="104" height="65.969" viewBox="0 0 104 65.969">
  <metadata><?xpacket begin="﻿" id="W5M0MpCehiHzreSzNTczkc9d"?>
<x:xmpmeta xmlns:x="adobe:ns:meta/" x:xmptk="Adobe XMP Core 5.6-c140 79.160451, 2017/05/06-01:08:21        ">
   <rdf:RDF xmlns:rdf="http://www.w3.org/1999/02/22-rdf-syntax-ns#">
      <rdf:Description rdf:about=""/>
   </rdf:RDF>
</x:xmpmeta>
                                                                                                    
                                                                                                    
                                                                                                    
                                                                                                    
                                                                                                    
                                                                                                    
                                                                                                    
                                                                                                    
                                                                                                    
                                                                                                    
                                                                                                    
                                                                                                    
                                                                                                    
                                                                                                    
                                                                                                    
                                                                                                    
                                                                                                    
                                                                                                    
                                                                                                    
                                                                                                    
                           
<?xpacket end="w"?></metadata>
<defs>
    <style>
      .cls-1 {
        fill: #20aa97;
        fill-rule: evenodd;
      }
    </style>
  </defs>
  <path class="cls-1" d="M1247.86,987h-5.25a3.515,3.515,0,0,1-3.49-2.893l-2.43-18.565h-2.29a5.005,5.005,0,0,1-5.03-4.715h-0.27a4.075,4.075,0,0,1-4.11-4.034v-7.825a4.075,4.075,0,0,1,4.11-4.033h0.27a5,5,0,0,1,5.03-4.715h15.69a5.025,5.025,0,0,1,4.45,2.622,56.772,56.772,0,0,0,26.67-7.129c13.13-7.579,15.46-13.185,15.49-13.241a2.264,2.264,0,0,1,2.49-1.43,2.22,2.22,0,0,1,1.88,2.179v20.818c0.25,12.435.2,16.319-.01,17.685h0.01v20.817a2.218,2.218,0,0,1-1.89,2.186,2.147,2.147,0,0,1-.36.029,2.25,2.25,0,0,1-2.13-1.494c-0.01-.025-2.35-5.636-15.48-13.214a56.792,56.792,0,0,0-26.66-7.129,5.051,5.051,0,0,1-4.46,2.623h-1l2.26,17.452a3.375,3.375,0,0,1-.8,2.774A3.52,3.52,0,0,1,1247.86,987Zm-18.76-39.665a1.645,1.645,0,0,0-1.66,1.633v7.825a1.646,1.646,0,0,0,1.66,1.634h1.48a1.206,1.206,0,0,1,1.22,1.2v0.962a2.582,2.582,0,0,0,2.6,2.554h3.36a1.2,1.2,0,0,1,1.21,1.046l2.57,19.564a1.078,1.078,0,0,0,1.07.847h5.25a1.1,1.1,0,0,0,.83-0.379,1.035,1.035,0,0,0,.24-0.873l-2.44-18.854a1.215,1.215,0,0,1,1.21-1.351h2.39a2.582,2.582,0,0,0,2.48-1.783,1.226,1.226,0,0,1,1.15-.837l0.53,0a59.349,59.349,0,0,1,28.19,7.46c11.41,6.585,15.14,11.854,16.19,13.741v-20a1.283,1.283,0,0,1,.06-0.391c0.16-1.209.09-9.715-.06-17.27V924.038c-1.05,1.887-4.78,7.163-16.19,13.742a59.317,59.317,0,0,1-28.19,7.461l-0.53,0a1.224,1.224,0,0,1-1.15-.838,2.583,2.583,0,0,0-2.48-1.784H1234.4a2.583,2.583,0,0,0-2.6,2.553v0.963a1.206,1.206,0,0,1-1.22,1.2h-1.48Zm69.89,35.12v0Zm-0.01-21.573h0Zm0,0v0h0Zm0.01,0a0.019,0.019,0,0,0-.01,0,0.018,0.018,0,0,1,.01,0h0Zm-45.04,1.217a1.206,1.206,0,0,1-1.22-1.2V944.764a1.22,1.22,0,0,1,2.44,0V960.89A1.212,1.212,0,0,1,1253.95,962.09Zm-6.25,3.45h-9.94a1.2,1.2,0,1,1,0-2.4h9.94A1.2,1.2,0,1,1,1247.7,965.54Zm-17.12-5.629a1.213,1.213,0,0,1-1.22-1.2V946.133a1.22,1.22,0,0,1,2.44,0v12.578A1.207,1.207,0,0,1,1230.58,959.911Zm69.86,1.12a1.2,1.2,0,1,1,0-2.4,1.948,1.948,0,0,0,2.1-1.742v-8.313a1.947,1.947,0,0,0-2.1-1.741,1.2,1.2,0,1,1,0-2.4,4.364,4.364,0,0,1,4.55,4.141v8.313A4.364,4.364,0,0,1,1300.44,961.031Zm27.34-5.87h-9.28a1.2,1.2,0,1,1,0-2.4h9.28A1.2,1.2,0,1,1,1327.78,955.161Zm-8.67,21.312a1.228,1.228,0,0,1-.86-0.351l-6.56-6.446a1.179,1.179,0,0,1,0-1.7,1.239,1.239,0,0,1,1.73,0l6.56,6.445a1.2,1.2,0,0,1,0,1.7A1.234,1.234,0,0,1,1319.11,976.473Zm-6.56-35.911a1.229,1.229,0,0,1-.86-0.352,1.179,1.179,0,0,1,0-1.7l6.56-6.446a1.239,1.239,0,0,1,1.73,0,1.2,1.2,0,0,1,0,1.7l-6.56,6.445A1.235,1.235,0,0,1,1312.55,940.562Z" transform="translate(-1225 -921.031)"/>
</svg>
