<svg xmlns="http://www.w3.org/2000/svg" width="94" height="69" viewBox="0 0 94 69">
  <metadata><?xpacket begin="﻿" id="W5M0MpCehiHzreSzNTczkc9d"?>
<x:xmpmeta xmlns:x="adobe:ns:meta/" x:xmptk="Adobe XMP Core 5.6-c140 79.160451, 2017/05/06-01:08:21        ">
   <rdf:RDF xmlns:rdf="http://www.w3.org/1999/02/22-rdf-syntax-ns#">
      <rdf:Description rdf:about=""/>
   </rdf:RDF>
</x:xmpmeta>
                                                                                                    
                                                                                                    
                                                                                                    
                                                                                                    
                                                                                                    
                                                                                                    
                                                                                                    
                                                                                                    
                                                                                                    
                                                                                                    
                                                                                                    
                                                                                                    
                                                                                                    
                                                                                                    
                                                                                                    
                                                                                                    
                                                                                                    
                                                                                                    
                                                                                                    
                                                                                                    
                           
<?xpacket end="w"?></metadata>
<defs>
    <style>
      .cls-1 {
        fill: #20aa97;
        fill-rule: evenodd;
      }
    </style>
  </defs>
  <path class="cls-1" d="M1620.98,655.591h-54.52a1.271,1.271,0,0,1-1.28-1.254V625.623a1.271,1.271,0,0,1,1.28-1.254h54.52a1.265,1.265,0,0,1,1.28,1.254v28.714A1.264,1.264,0,0,1,1620.98,655.591Zm-53.24-2.507h51.96V626.876h-51.96v26.208Zm-0.94-19.4a1.254,1.254,0,1,1,0-2.508,5.452,5.452,0,0,0,5.5-5.385,1.275,1.275,0,0,1,2.55,0A7.981,7.981,0,0,1,1566.8,633.682Zm53.51,0a7.99,7.99,0,0,1-8.06-7.893,1.28,1.28,0,0,1,2.56,0,5.452,5.452,0,0,0,5.5,5.385A1.254,1.254,0,1,1,1620.31,633.682Zm-6.78,21.909a1.271,1.271,0,0,1-1.28-1.254,7.99,7.99,0,0,1,8.06-7.893,1.254,1.254,0,1,1,0,2.508,5.451,5.451,0,0,0-5.5,5.385A1.264,1.264,0,0,1,1613.53,655.591Zm-39.95,0a1.264,1.264,0,0,1-1.28-1.254,5.451,5.451,0,0,0-5.5-5.385,1.254,1.254,0,1,1,0-2.508,7.981,7.981,0,0,1,8.05,7.893A1.262,1.262,0,0,1,1573.58,655.591Zm20.86-3.9a11.671,11.671,0,1,1,11.91-11.668A11.8,11.8,0,0,1,1594.44,651.69Zm0-20.83a9.163,9.163,0,1,0,9.35,9.162A9.263,9.263,0,0,0,1594.44,630.86Zm-0.63,13.378a5.184,5.184,0,0,1-2.1-.618,0.929,0.929,0,0,1-.3-1.347l0.01-.018a0.95,0.95,0,0,1,1.25-.264,3.756,3.756,0,0,0,1.92.526c0.72,0,1.16-.274,1.16-0.656,0-1.087-4.61-.216-4.61-3.285,0-1.206.94-2.293,2.67-2.5v-1.122h1.35v1.135a5.187,5.187,0,0,1,1.62.483,0.909,0.909,0,0,1,.29,1.372h0a0.981,0.981,0,0,1-1.21.247,3.941,3.941,0,0,0-1.7-.394c-0.61,0-.88.239-0.88,0.573,0,1.015,4.6.275,4.6,3.237,0,1.433-.96,2.436-2.72,2.628v1.086h-1.35v-1.086Zm22.6-21.345h-46.05a1.254,1.254,0,1,1,0-2.508h46.05A1.254,1.254,0,1,1,1616.41,622.893Zm-5.71-3.652h-34.42a1.254,1.254,0,1,1,0-2.507h34.42A1.254,1.254,0,1,1,1610.7,619.241Zm6.91-4.935a1.279,1.279,0,0,1-1.12-.65l-3.18-5.668a1.183,1.183,0,0,1-.11-0.954,1.231,1.231,0,0,1,.61-0.749l5.78-3.12a1.3,1.3,0,0,1,1.74.494,1.248,1.248,0,0,1-.5,1.7l-4.67,2.515,2.57,4.57a1.24,1.24,0,0,1-.5,1.7A1.314,1.314,0,0,1,1617.61,614.306Zm20.12,19.44a1.271,1.271,0,0,1-1.27-1.168,26.05,26.05,0,0,0-20.23-23.5l-0.27-.064,0.14-1.254-0.28,1.223-0.45-.1a1.256,1.256,0,0,1-1-1.482,1.28,1.28,0,0,1,1.51-.974l0.95,0.208a28.556,28.556,0,0,1,22.18,25.767,1.259,1.259,0,0,1-1.19,1.337Zm-20.12-19.44a1.279,1.279,0,0,1-1.12-.65l-3.18-5.668a1.183,1.183,0,0,1-.11-0.954,1.231,1.231,0,0,1,.61-0.749l5.78-3.12a1.3,1.3,0,0,1,1.74.494,1.248,1.248,0,0,1-.5,1.7l-4.67,2.515,2.57,4.57a1.24,1.24,0,0,1-.5,1.7A1.314,1.314,0,0,1,1617.61,614.306ZM1563.82,672a1.278,1.278,0,0,1-1.12-.649,1.231,1.231,0,0,1,.5-1.7l4.66-2.516-2.57-4.569a1.243,1.243,0,0,1,.51-1.7,1.3,1.3,0,0,1,1.74.493l3.18,5.668a1.267,1.267,0,0,1,.11.953,1.3,1.3,0,0,1-.61.749l-5.79,3.121A1.248,1.248,0,0,1,1563.82,672Zm4.58-3.395a1.275,1.275,0,0,1-.26-0.027l-0.42-.088-0.23-.051-0.3-.069a28.578,28.578,0,0,1-22.18-25.768,1.283,1.283,0,0,1,2.56-.171,26.042,26.042,0,0,0,20.22,23.5l0.29,0.069-0.09,1.264,0.28-1.224,0.39,0.083a1.247,1.247,0,0,1,.99,1.485A1.27,1.27,0,0,1,1568.4,668.6ZM1563.82,672a1.278,1.278,0,0,1-1.12-.649,1.231,1.231,0,0,1,.5-1.7l4.66-2.516-2.57-4.569a1.243,1.243,0,0,1,.51-1.7,1.3,1.3,0,0,1,1.74.493l3.18,5.668a1.267,1.267,0,0,1,.11.953,1.3,1.3,0,0,1-.61.749l-5.79,3.121A1.248,1.248,0,0,1,1563.82,672Z" transform="translate(-1545 -603)"/>
</svg>
