<svg xmlns="http://www.w3.org/2000/svg" width="69" height="69" viewBox="0 0 69 69">
  <metadata><?xpacket begin="﻿" id="W5M0MpCehiHzreSzNTczkc9d"?>
<x:xmpmeta xmlns:x="adobe:ns:meta/" x:xmptk="Adobe XMP Core 5.6-c140 79.160451, 2017/05/06-01:08:21        ">
   <rdf:RDF xmlns:rdf="http://www.w3.org/1999/02/22-rdf-syntax-ns#">
      <rdf:Description rdf:about=""/>
   </rdf:RDF>
</x:xmpmeta>
                                                                                                    
                                                                                                    
                                                                                                    
                                                                                                    
                                                                                                    
                                                                                                    
                                                                                                    
                                                                                                    
                                                                                                    
                                                                                                    
                                                                                                    
                                                                                                    
                                                                                                    
                                                                                                    
                                                                                                    
                                                                                                    
                                                                                                    
                                                                                                    
                                                                                                    
                                                                                                    
                           
<?xpacket end="w"?></metadata>
<defs>
    <style>
      .cls-1 {
        fill: #20aa97;
        fill-rule: evenodd;
      }
    </style>
  </defs>
  <path class="cls-1" d="M335.636,974.289a19.856,19.856,0,0,1-13.921-5.626l-15.5-15.068a18.587,18.587,0,0,1-3.75-21.915,1.284,1.284,0,0,1,.245-0.328l0,0a6.923,6.923,0,0,1,6.166-3.629,7,7,0,0,1,4.856,1.931l6.568,6.244a6.625,6.625,0,0,1-.491,9.94,1.752,1.752,0,0,0-.729,1.332,1.185,1.185,0,0,1-.013.178,1.579,1.579,0,0,0,.513,1.353l7.017,6.824a1.869,1.869,0,0,0,1.385.508,1.924,1.924,0,0,0,1.379-.689,6.823,6.823,0,0,1,5.39-2.46,7.256,7.256,0,0,1,5,2.072l6.578,6.4a6.34,6.34,0,0,1,1.822,5.783,6.533,6.533,0,0,1-3.572,4.939l-0.008.007a1.269,1.269,0,0,1-.3.218A18.94,18.94,0,0,1,335.636,974.289Zm-30.957-41.308a16.143,16.143,0,0,0,3.36,18.844l15.5,15.069a17.264,17.264,0,0,0,12.1,4.892,16.394,16.394,0,0,0,7.272-1.618l0.009-.009a1.273,1.273,0,0,1,.33-0.231,4.039,4.039,0,0,0,2.373-3.192,3.944,3.944,0,0,0-1.1-3.616h0l-6.578-6.4a4.632,4.632,0,0,0-3.183-1.339,4.25,4.25,0,0,0-3.37,1.507,4.522,4.522,0,0,1-3.257,1.637,4.393,4.393,0,0,1-3.347-1.236l-7.017-6.823a4.024,4.024,0,0,1-1.253-3.392,4.194,4.194,0,0,1,1.651-3.161,4.161,4.161,0,0,0,.333-6.241l-6.569-6.245a4.442,4.442,0,0,0-3.046-1.207,4.338,4.338,0,0,0-3.966,2.436A1.237,1.237,0,0,1,304.679,932.981Zm39,38.209h0Zm-8.973-40.7a1.293,1.293,0,0,1-1.129-.648l-3.637-6.427a1.233,1.233,0,0,1,.507-1.7l6.608-3.537a1.305,1.305,0,0,1,1.749.492,1.234,1.234,0,0,1-.507,1.7l-5.481,2.934,3.016,5.331a1.233,1.233,0,0,1-.506,1.7A1.307,1.307,0,0,1,334.7,930.489Zm23,22.044a1.274,1.274,0,0,1-1.283-1.166,29.786,29.786,0,0,0-23.253-26.8l-1-.217a1.254,1.254,0,0,1-1-1.479,1.285,1.285,0,0,1,1.52-.973l1.082,0.236a32.3,32.3,0,0,1,25.22,29.063,1.265,1.265,0,0,1-1.2,1.334C357.766,952.532,357.738,952.533,357.707,952.533Zm-23-22.044a1.293,1.293,0,0,1-1.129-.648l-3.637-6.427a1.233,1.233,0,0,1,.507-1.7l6.608-3.537a1.305,1.305,0,0,1,1.749.492,1.234,1.234,0,0,1-.507,1.7l-5.481,2.934,3.016,5.331a1.233,1.233,0,0,1-.506,1.7A1.307,1.307,0,0,1,334.7,930.489Zm-23.37,56.524a1.292,1.292,0,0,1-1.128-.648,1.233,1.233,0,0,1,.506-1.7l5.481-2.933-3.016-5.331a1.234,1.234,0,0,1,.506-1.7,1.306,1.306,0,0,1,1.749.492l3.637,6.427a1.233,1.233,0,0,1-.507,1.7l-6.608,3.537A1.317,1.317,0,0,1,311.333,987.013Zm5.241-3.85a1.312,1.312,0,0,1-.255-0.025l-1.093-.237a32.3,32.3,0,0,1-25.214-29.062,1.288,1.288,0,0,1,2.569-.171,29.786,29.786,0,0,0,23.253,26.8l0.993,0.215a1.253,1.253,0,0,1,1.008,1.474A1.28,1.28,0,0,1,316.574,983.163Zm-5.241,3.85a1.292,1.292,0,0,1-1.128-.648,1.233,1.233,0,0,1,.506-1.7l5.481-2.933-3.016-5.331a1.234,1.234,0,0,1,.506-1.7,1.306,1.306,0,0,1,1.749.492l3.637,6.427a1.233,1.233,0,0,1-.507,1.7l-6.608,3.537A1.317,1.317,0,0,1,311.333,987.013Zm20.512-40.2a5.229,5.229,0,0,1-2.108-.617,0.917,0.917,0,0,1-.3-1.344l0.012-.018a0.959,0.959,0,0,1,1.258-.264,3.762,3.762,0,0,0,1.925.525c0.724,0,1.165-.273,1.165-0.655,0-1.085-4.634-.216-4.634-3.28,0-1.2.943-2.288,2.684-2.492v-1.12h1.361v1.133a5.328,5.328,0,0,1,1.636.482,0.9,0.9,0,0,1,.282,1.37h0a0.989,0.989,0,0,1-1.216.247,3.988,3.988,0,0,0-1.707-.394c-0.613,0-.883.239-0.883,0.572,0,1.013,4.623.274,4.623,3.232,0,1.43-.969,2.431-2.735,2.623v1.084h-1.361v-1.084Z" transform="translate(-290 -918)"/>
</svg>
