<svg xmlns="http://www.w3.org/2000/svg" width="52" height="49" viewBox="0 0 52 49">
  <metadata><?xpacket begin="﻿" id="W5M0MpCehiHzreSzNTczkc9d"?>
<x:xmpmeta xmlns:x="adobe:ns:meta/" x:xmptk="Adobe XMP Core 5.6-c140 79.160451, 2017/05/06-01:08:21        ">
   <rdf:RDF xmlns:rdf="http://www.w3.org/1999/02/22-rdf-syntax-ns#">
      <rdf:Description rdf:about=""/>
   </rdf:RDF>
</x:xmpmeta>
                                                                                                    
                                                                                                    
                                                                                                    
                                                                                                    
                                                                                                    
                                                                                                    
                                                                                                    
                                                                                                    
                                                                                                    
                                                                                                    
                                                                                                    
                                                                                                    
                                                                                                    
                                                                                                    
                                                                                                    
                                                                                                    
                                                                                                    
                                                                                                    
                                                                                                    
                                                                                                    
                           
<?xpacket end="w"?></metadata>
<defs>
    <style>
      .cls-1 {
        fill: #20aa97;
        fill-rule: evenodd;
      }
    </style>
  </defs>
  <path class="cls-1" d="M400.754,1498a0.939,0.939,0,0,1-.48-0.14,0.908,0.908,0,0,1-.287-1.25l4.185-6.64a0.907,0.907,0,0,1,1.249-.29,0.9,0.9,0,0,1,.287,1.24l-4.185,6.65A0.9,0.9,0,0,1,400.754,1498Zm38.062,0a0.9,0.9,0,0,1-.769-0.43l-4.183-6.65a0.9,0.9,0,0,1,.286-1.24,0.907,0.907,0,0,1,1.249.29l4.184,6.64a0.908,0.908,0,0,1-.287,1.25A0.934,0.934,0,0,1,438.816,1498Zm-18.413-1.61a22.531,22.531,0,0,1-6.864-1.08,22.234,22.234,0,0,1-3.384-41.01,22.543,22.543,0,0,1,24.054,2.3,0.9,0.9,0,1,1-1.118,1.42,20.69,20.69,0,0,0-22.108-2.11,20.512,20.512,0,1,0,27.68,8.85,0.907,0.907,0,0,1,1.612-.83,22.225,22.225,0,0,1-9.673,29.99A22.366,22.366,0,0,1,420.4,1496.39Zm0-5.99a16.394,16.394,0,0,1-14.885-9.46,16.262,16.262,0,0,1,8-21.62,16.5,16.5,0,0,1,16.122,1.36,0.9,0.9,0,1,1-1.024,1.48,14.723,14.723,0,0,0-14.339-1.21,14.466,14.466,0,0,0-7.118,19.23,14.543,14.543,0,0,0,26.432-12.14,0.906,0.906,0,0,1,1.645-.76A16.306,16.306,0,0,1,420.4,1490.4Zm-0.04-5.74a10.632,10.632,0,0,1-5.138-1.33,10.559,10.559,0,0,1,10.088-18.55,0.89,0.89,0,0,1,.379,1.21,0.911,0.911,0,0,1-1.223.38,8.8,8.8,0,0,0-11.765,3.49,8.725,8.725,0,0,0,3.4,11.89,8.8,8.8,0,0,0,11.947-3.39,8.634,8.634,0,0,0,.773-6.64,0.907,0.907,0,0,1,1.743-.5A10.6,10.6,0,0,1,420.363,1484.66Zm0.028-4.94a6.128,6.128,0,0,1-1.042-.09,5.615,5.615,0,1,1,2.059-11.04,0.9,0.9,0,0,1,.726,1.05,0.913,0.913,0,0,1-1.056.73,3.8,3.8,0,1,0,3.062,4.44,0.906,0.906,0,1,1,1.781.33A5.62,5.62,0,0,1,420.391,1479.72Zm23.76-18.94a1.028,1.028,0,0,1-.175-0.01l-4.11-.41h-1.009a1.223,1.223,0,0,1-1.2-1.48l0.219-1.01,0.409-4.04a1.817,1.817,0,0,1,.728-1.28l4.45-3.2a1.857,1.857,0,0,1,1.027-.34,1.76,1.76,0,0,1,1.367.6,1.782,1.782,0,0,1,.481,1.4l-0.23,2.25,2.265,0.23a1.811,1.811,0,0,1,1.054,3.12l-4.042,3.69A1.8,1.8,0,0,1,444.151,1460.78Zm-4.262-2.23c0.023,0,.081.01,0.105,0.01l4.16,0.42,4.041-3.7-2.852-.28a1.228,1.228,0,0,1-1.1-1.34l0.29-2.84-4.454,3.19-0.414,4.11-0.013.09-0.075.35,0.3-.01h0Zm-1.035.01h0Zm-18.07,16.15a0.9,0.9,0,0,1-.573-1.6l17.674-14.34a0.9,0.9,0,1,1,1.144,1.39l-17.674,14.35A0.938,0.938,0,0,1,420.784,1474.71Z" transform="translate(-398 -1449)"/>
</svg>
