<svg xmlns="http://www.w3.org/2000/svg" width="66" height="69" viewBox="0 0 66 69">
  <metadata><?xpacket begin="﻿" id="W5M0MpCehiHzreSzNTczkc9d"?>
<x:xmpmeta xmlns:x="adobe:ns:meta/" x:xmptk="Adobe XMP Core 5.6-c140 79.160451, 2017/05/06-01:08:21        ">
   <rdf:RDF xmlns:rdf="http://www.w3.org/1999/02/22-rdf-syntax-ns#">
      <rdf:Description rdf:about=""/>
   </rdf:RDF>
</x:xmpmeta>
                                                                                                    
                                                                                                    
                                                                                                    
                                                                                                    
                                                                                                    
                                                                                                    
                                                                                                    
                                                                                                    
                                                                                                    
                                                                                                    
                                                                                                    
                                                                                                    
                                                                                                    
                                                                                                    
                                                                                                    
                                                                                                    
                                                                                                    
                                                                                                    
                                                                                                    
                                                                                                    
                           
<?xpacket end="w"?></metadata>
<defs>
    <style>
      .cls-1 {
        fill: #20aa97;
        fill-rule: evenodd;
      }
    </style>
  </defs>
  <path class="cls-1" d="M1288.76,617.228a1.246,1.246,0,0,1-1.09-.646l-3.17-5.778a1.254,1.254,0,0,1-.1-0.949,1.231,1.231,0,0,1,.59-0.746l5.75-3.18a1.24,1.24,0,0,1,1.69.491,1.253,1.253,0,0,1-.49,1.7l-4.66,2.579,2.57,4.684A1.247,1.247,0,0,1,1288.76,617.228Zm4.46,38.777h-0.19a6.123,6.123,0,0,1-4.23-1.588,11.71,11.71,0,0,1-2.31-3.1,0.024,0.024,0,0,1-.01-0.022,17.112,17.112,0,0,1-1.67-6.514v-0.939a6.756,6.756,0,0,1,4.68-6.137,9.216,9.216,0,0,1,3.54-.664,9.67,9.67,0,0,1,3.56.673,6.827,6.827,0,0,1,4.66,6.025v0.98a15.258,15.258,0,0,1-1.58,6.577,8.581,8.581,0,0,1-2.32,3.118A6.189,6.189,0,0,1,1293.22,656.005Zm-4.51-5.79a9.46,9.46,0,0,0,1.8,2.393,3.42,3.42,0,0,0,1.6.807,1.23,1.23,0,0,1,1.22-1.075h0.01a1.237,1.237,0,0,1,1.2.923,3.716,3.716,0,0,0,1.15-.705,6.172,6.172,0,0,0,1.71-2.259,12.957,12.957,0,0,0,1.37-5.577v-0.877a4.379,4.379,0,0,0-3.08-3.8,7.168,7.168,0,0,0-2.66-.5,6.726,6.726,0,0,0-2.64.5,4.282,4.282,0,0,0-3.1,3.909v0.778A14.644,14.644,0,0,0,1288.71,650.215Zm15.95,20.793h-23.07a4.224,4.224,0,0,1-3.97-2.732,0.92,0.92,0,0,1-.05-0.162c-0.1-.407-0.2-0.815-0.3-1.324a1.029,1.029,0,0,1-.03-0.246v-3.8a4.887,4.887,0,0,1,2.04-3.913,6.77,6.77,0,0,1,2.26-1.184l4.74-1.816a1.308,1.308,0,0,1,.28-0.071l1.46-.195a1.174,1.174,0,0,1,.46.027l0.39,0.1a3.335,3.335,0,0,1,1.74,1.107,1.587,1.587,0,0,1,.3.416c0.5,0.646.97,1.318,1.44,1.989,0.24,0.353.49,0.708,0.74,1.057l1.74-2.43a1.1,1.1,0,0,1,.2-0.215,4.381,4.381,0,0,1,.71-0.915l0.19-.194c0.04-.037.08-0.071,0.12-0.1a4.033,4.033,0,0,1,4.13-.369l4.72,1.742a6.024,6.024,0,0,1,2.07,1.054,4.431,4.431,0,0,1,2.04,4.167v3.451a4.02,4.02,0,0,1-.43,1.923A4.269,4.269,0,0,1,1304.66,671.008Zm-24.7-3.59a1.73,1.73,0,0,0,1.63,1.1h23.07a1.847,1.847,0,0,0,1.66-1.166,1.692,1.692,0,0,0,.2-0.9v-3.6a1.247,1.247,0,0,1,.05-0.332,2.191,2.191,0,0,0-1.08-1.677,0.249,0.249,0,0,1-.05-0.037,3.658,3.658,0,0,0-1.31-.651l-4.84-1.784a1.632,1.632,0,0,0-1.66-.031l-0.14.133a2.16,2.16,0,0,0-.35.455,1.127,1.127,0,0,1-.15.244,1.6,1.6,0,0,1-.29.324l-2.57,3.6a1.222,1.222,0,0,1-.97.52,1.262,1.262,0,0,1-1-.468l-0.39-.487c-0.51-.666-0.98-1.338-1.45-2.011-0.44-.628-0.88-1.257-1.35-1.863a1.961,1.961,0,0,1-.21-0.3,1.06,1.06,0,0,0-.44-0.347l-0.21-.053-1.08.144-4.71,1.8a4.545,4.545,0,0,0-1.51.781,2.432,2.432,0,0,0-1.09,1.9l0.01,3.718C1279.8,666.793,1279.88,667.109,1279.96,667.418Zm26.69-5.131h0Zm0,0h0Zm-15.85-5.2h0Zm17.97-20.043a1.248,1.248,0,0,1-1.24-1.163A26.389,26.389,0,0,0,1287.4,611.9l-0.87-.2a1.247,1.247,0,0,1,.51-2.442l0.89,0.2a28.9,28.9,0,0,1,22.08,26.252,1.243,1.243,0,0,1-1.15,1.33Zm-20.01-19.818a1.246,1.246,0,0,1-1.09-.646l-3.17-5.778a1.254,1.254,0,0,1-.1-0.949,1.231,1.231,0,0,1,.59-0.746l5.75-3.18a1.24,1.24,0,0,1,1.69.491,1.253,1.253,0,0,1-.49,1.7l-4.66,2.579,2.57,4.684A1.247,1.247,0,0,1,1288.76,617.228Zm-21.54,49.806a1.247,1.247,0,0,1-.25-0.025l-0.95-.214a28.88,28.88,0,0,1-22.03-26.238,1.243,1.243,0,1,1,2.48-.171,26.391,26.391,0,0,0,20.13,23.985l0.87,0.193A1.249,1.249,0,0,1,1267.22,667.034Zm-3.75,3.011a1.248,1.248,0,0,1-.6-2.341l3.85-2.128-2.12-3.866a1.245,1.245,0,1,1,2.18-1.2l2.71,4.959a1.241,1.241,0,0,1-.48,1.695l-4.94,2.73A1.248,1.248,0,0,1,1263.47,670.045Zm16.89-53.375h-34.69a1.25,1.25,0,0,1-.72-2.27l17.35-12.186a1.229,1.229,0,0,1,1.42,0l17.35,12.186a1.26,1.26,0,0,1,.47,1.4A1.236,1.236,0,0,1,1280.36,616.67Zm-30.75-2.5h26.8l-13.4-9.417Zm0.29,16.908a1.246,1.246,0,0,1-1.24-1.247V616.062a1.245,1.245,0,1,1,2.49,0v13.774A1.249,1.249,0,0,1,1249.9,631.083Zm6.61,0a1.24,1.24,0,0,1-1.24-1.247V616.062a1.24,1.24,0,1,1,2.48,0v13.774A1.246,1.246,0,0,1,1256.51,631.083Zm12.9,0a1.246,1.246,0,0,1-1.24-1.247V616.062a1.245,1.245,0,1,1,2.49,0v13.774A1.249,1.249,0,0,1,1269.41,631.083Zm-6.3,0a1.24,1.24,0,0,1-1.24-1.247V616.062a1.24,1.24,0,1,1,2.48,0v13.774A1.24,1.24,0,0,1,1263.11,631.083Zm12.61,0a1.24,1.24,0,0,1-1.24-1.247V616.062a1.24,1.24,0,1,1,2.48,0v13.774A1.246,1.246,0,0,1,1275.72,631.083Zm2,0.5H1248a1.248,1.248,0,0,1,0-2.5h29.72A1.248,1.248,0,0,1,1277.72,631.586Zm2.65,3.691h-34.5a1.248,1.248,0,0,1,0-2.5h34.5A1.248,1.248,0,0,1,1280.37,635.277Z" transform="translate(-1244 -602)"/>
</svg>
