<svg xmlns="http://www.w3.org/2000/svg" width="70" height="69" viewBox="0 0 70 69">
  <metadata><?xpacket begin="﻿" id="W5M0MpCehiHzreSzNTczkc9d"?>
<x:xmpmeta xmlns:x="adobe:ns:meta/" x:xmptk="Adobe XMP Core 5.6-c140 79.160451, 2017/05/06-01:08:21        ">
   <rdf:RDF xmlns:rdf="http://www.w3.org/1999/02/22-rdf-syntax-ns#">
      <rdf:Description rdf:about=""/>
   </rdf:RDF>
</x:xmpmeta>
                                                                                                    
                                                                                                    
                                                                                                    
                                                                                                    
                                                                                                    
                                                                                                    
                                                                                                    
                                                                                                    
                                                                                                    
                                                                                                    
                                                                                                    
                                                                                                    
                                                                                                    
                                                                                                    
                                                                                                    
                                                                                                    
                                                                                                    
                                                                                                    
                                                                                                    
                                                                                                    
                           
<?xpacket end="w"?></metadata>
<defs>
    <style>
      .cls-1 {
        fill: #20aa97;
        fill-rule: evenodd;
      }
    </style>
  </defs>
  <path class="cls-1" d="M605.845,607.961,677.737,671H610.283a1.264,1.264,0,0,1-1.272-1.257V603.257a1.272,1.272,0,0,1,2.543,0v65.226h66.183A1.257,1.257,0,1,1,677.737,671ZM628.27,670.5A1.264,1.264,0,0,1,627,669.245v-4.739a1.271,1.271,0,0,1,2.542,0v4.739A1.264,1.264,0,0,1,628.27,670.5Zm17.987,0a1.264,1.264,0,0,1-1.271-1.257v-4.739a1.271,1.271,0,0,1,2.542,0v4.739A1.264,1.264,0,0,1,646.257,670.5Zm17.989,0a1.264,1.264,0,0,1-1.271-1.257v-4.739a1.271,1.271,0,0,1,2.542,0v4.739A1.264,1.264,0,0,1,664.246,670.5Zm-9.494-20.51a23.521,23.521,0,1,1,23.792-23.52A23.685,23.685,0,0,1,654.752,649.992Zm0-44.526A21.008,21.008,0,1,0,676,626.472,21.153,21.153,0,0,0,654.752,605.466Zm-43.561,64.047a1.3,1.3,0,0,1-.467-0.087,1.254,1.254,0,0,1-.716-1.63l6.371-15.971a1.271,1.271,0,0,1,.933-0.771,1.284,1.284,0,0,1,1.162.358l4.276,4.355,5.846-10.981a1.27,1.27,0,0,1,.874-0.646,1.288,1.288,0,0,1,1.061.262l5.676,4.63,3.69-4.456a1.28,1.28,0,0,1,1.788-.177,1.245,1.245,0,0,1,.178,1.768l-4.5,5.434a1.283,1.283,0,0,1-1.793.173l-5.455-4.45-5.935,11.146a1.278,1.278,0,0,1-2.037.29l-4.125-4.2-5.647,14.159A1.271,1.271,0,0,1,611.191,669.513Zm35.065-31.164a1.279,1.279,0,0,1-.793-0.276,1.247,1.247,0,0,1-.2-1.767l17.487-21.6a1.282,1.282,0,0,1,1.786-.2,1.247,1.247,0,0,1,.2,1.767l-17.487,21.6A1.273,1.273,0,0,1,646.256,638.349Zm2-12.6a5.7,5.7,0,1,1,5.769-5.7A5.741,5.741,0,0,1,648.256,625.753Zm0-8.891a3.189,3.189,0,1,0,3.226,3.189A3.211,3.211,0,0,0,648.256,616.862ZM661.248,638.6a5.7,5.7,0,1,1,5.767-5.7A5.743,5.743,0,0,1,661.248,638.6Zm0-8.891a3.189,3.189,0,1,0,3.225,3.189A3.211,3.211,0,0,0,661.248,629.7Z" transform="translate(-609 -602)"/>
</svg>
