<svg xmlns="http://www.w3.org/2000/svg" width="69" height="69" viewBox="0 0 69 69">
  <metadata><?xpacket begin="﻿" id="W5M0MpCehiHzreSzNTczkc9d"?>
<x:xmpmeta xmlns:x="adobe:ns:meta/" x:xmptk="Adobe XMP Core 5.6-c140 79.160451, 2017/05/06-01:08:21        ">
   <rdf:RDF xmlns:rdf="http://www.w3.org/1999/02/22-rdf-syntax-ns#">
      <rdf:Description rdf:about=""/>
   </rdf:RDF>
</x:xmpmeta>
                                                                                                    
                                                                                                    
                                                                                                    
                                                                                                    
                                                                                                    
                                                                                                    
                                                                                                    
                                                                                                    
                                                                                                    
                                                                                                    
                                                                                                    
                                                                                                    
                                                                                                    
                                                                                                    
                                                                                                    
                                                                                                    
                                                                                                    
                                                                                                    
                                                                                                    
                                                                                                    
                           
<?xpacket end="w"?></metadata>
<defs>
    <style>
      .cls-1 {
        fill: #20aa97;
        fill-rule: evenodd;
      }
    </style>
  </defs>
  <path id="Shape_58_copy" data-name="Shape 58 copy" class="cls-1" d="M1597.98,951.927h-3.9a3.7,3.7,0,0,1-3.68-3,3.861,3.861,0,0,1-4.7-.442l-2.78-2.761a3.729,3.729,0,0,1-.43-4.7,3.638,3.638,0,0,1-3.03-3.621v-3.875a3.686,3.686,0,0,1,3.02-3.654,3.577,3.577,0,0,1,.44-4.666l2.78-2.761a3.783,3.783,0,0,1,4.73-.428,3.657,3.657,0,0,1,3.65-3.011h3.9a3.705,3.705,0,0,1,3.68,3,3.629,3.629,0,0,1,4.69.442l2.77,2.751a7.947,7.947,0,0,0,3.47,8.33v3.875a3.679,3.679,0,0,1-3.01,3.654,3.578,3.578,0,0,1-.45,4.666l-2.78,2.761a3.847,3.847,0,0,1-4.73.431A3.639,3.639,0,0,1,1597.98,951.927Zm-6.68-6.419a1.245,1.245,0,0,1,.48.095,1.26,1.26,0,0,1,.76.94l0.31,1.781a1.2,1.2,0,0,0,1.23,1.1h3.9a1.132,1.132,0,0,0,1.17-.98l0.32-1.9a1.268,1.268,0,0,1,.76-0.942,1.253,1.253,0,0,1,1.2.128l1.48,1.024a1.193,1.193,0,0,0,1.66-.035l2.78-2.762a1.1,1.1,0,0,0,.16-1.469l-1.15-1.6a1.277,1.277,0,0,1-.13-1.2,1.245,1.245,0,0,1,.94-0.754l1.8-.312a1.193,1.193,0,0,0,1.11-1.218v-3.875a1.131,1.131,0,0,0-.99-1.161l-1.91-.323a1.269,1.269,0,0,1-.95-0.749,1.249,1.249,0,0,1,.13-1.2l1.03-1.47a1.177,1.177,0,0,0-.01-1.63l-0.03-.022-2.78-2.761a1.1,1.1,0,0,0-1.47-.154l-1.62,1.137a1.256,1.256,0,0,1-1.96-.806l-0.32-1.782a1.188,1.188,0,0,0-1.22-1.1h-3.9a1.126,1.126,0,0,0-1.17.982l-0.33,1.9a1.235,1.235,0,0,1-.75.943,1.275,1.275,0,0,1-1.21-.127l-1.48-1.025a1.272,1.272,0,0,0-1.68.059l-2.76,2.739a1.092,1.092,0,0,0-.15,1.468l1.14,1.6a1.251,1.251,0,0,1,.14,1.2,1.265,1.265,0,0,1-.95.754l-1.79.312a1.193,1.193,0,0,0-1.11,1.217v3.875a1.125,1.125,0,0,0,.99,1.162l1.91,0.322a1.246,1.246,0,0,1,.82,1.947l-1.03,1.469a1.248,1.248,0,0,0,.06,1.676l2.75,2.737a1.363,1.363,0,0,0,1.47.166,0.585,0.585,0,0,1,.1-0.08l1.52-1.069A1.28,1.28,0,0,1,1591.3,945.508Zm5.29-2.567a7.471,7.471,0,1,1,7.52-7.472A7.509,7.509,0,0,1,1596.59,942.941Zm0-12.442a4.971,4.971,0,1,0,5.01,4.97A4.989,4.989,0,0,0,1596.59,930.5Zm-21.92,57.493a1.249,1.249,0,0,1-.88-0.355l-14.42-13.952a1.245,1.245,0,0,1-.01-1.781l10.33-10.19a17.18,17.18,0,0,1,17.6-3.955l2.06,0.718h13.75a5.6,5.6,0,0,1,5.62,5.579l-0.01.224a5.739,5.739,0,0,1-5.76,5.428h-8.42a0.448,0.448,0,1,0,0,.895h8.38a6.732,6.732,0,0,0,6.73-6.317,1.5,1.5,0,0,1,.31-0.868l7.75-8.666a5.967,5.967,0,0,1,8.16-.767,5.782,5.782,0,0,1,.83,8.16l-0.14.161-15.46,17.555a12.133,12.133,0,0,1-9.12,4.125h-22.75l-3.66,3.641A1.27,1.27,0,0,1,1574.67,987.992Zm-12.62-15.211,12.61,12.205,3.15-3.135a1.279,1.279,0,0,1,.89-0.366h23.27a9.6,9.6,0,0,0,7.22-3.269l15.48-17.572a3.3,3.3,0,0,0-.39-4.711,3.434,3.434,0,0,0-4.69.467l-7.46,8.351a9.249,9.249,0,0,1-9.22,8.351h-8.38a2.948,2.948,0,1,1,0-5.895h8.4a3.244,3.244,0,0,0,3.27-3.051,3.094,3.094,0,0,0-3.1-3.179h-13.97a1.211,1.211,0,0,1-.41-0.071l-2.26-.787a14.641,14.641,0,0,0-15,3.368Z" transform="translate(-1559 -919)"/>
</svg>
