<svg xmlns="http://www.w3.org/2000/svg" width="42" height="43" viewBox="0 0 42 43">
  <metadata><?xpacket begin="﻿" id="W5M0MpCehiHzreSzNTczkc9d"?>
<x:xmpmeta xmlns:x="adobe:ns:meta/" x:xmptk="Adobe XMP Core 5.6-c140 79.160451, 2017/05/06-01:08:21        ">
   <rdf:RDF xmlns:rdf="http://www.w3.org/1999/02/22-rdf-syntax-ns#">
      <rdf:Description rdf:about=""/>
   </rdf:RDF>
</x:xmpmeta>
                                                                                                    
                                                                                                    
                                                                                                    
                                                                                                    
                                                                                                    
                                                                                                    
                                                                                                    
                                                                                                    
                                                                                                    
                                                                                                    
                                                                                                    
                                                                                                    
                                                                                                    
                                                                                                    
                                                                                                    
                                                                                                    
                                                                                                    
                                                                                                    
                                                                                                    
                                                                                                    
                           
<?xpacket end="w"?></metadata>
<defs>
    <style>
      .cls-1 {
        fill: #20aa97;
        fill-rule: evenodd;
      }
    </style>
  </defs>
  <path class="cls-1" d="M1072.84,1484.45a16.225,16.225,0,1,1,15.84-16.22A16.057,16.057,0,0,1,1072.84,1484.45Zm0-30.84a14.624,14.624,0,1,0,14.28,14.62A14.465,14.465,0,0,0,1072.84,1453.61Zm14.14,29.75a0.822,0.822,0,0,1-.56-0.23l-3.42-3.5a0.834,0.834,0,0,1,0-1.14,0.779,0.779,0,0,1,1.11,0l3.42,3.5a0.815,0.815,0,0,1,0,1.14A0.781,0.781,0,0,1,1086.98,1483.36Zm6.59,11.63a3.509,3.509,0,0,1-2.56-1.09l-6.2-6.34a2.27,2.27,0,0,1,0-3.16l3.83-3.93a2.155,2.155,0,0,1,3.09,0l6.2,6.35a3.774,3.774,0,0,1,0,5.24h0l-1.8,1.84A3.509,3.509,0,0,1,1093.57,1494.99Zm-3.38-13.57a0.591,0.591,0,0,0-.44.19l-3.83,3.92a0.627,0.627,0,0,0-.18.45,0.588,0.588,0,0,0,.18.44l6.19,6.35a2.064,2.064,0,0,0,2.91,0l1.8-1.84a2.15,2.15,0,0,0,0-2.98l-6.19-6.34A0.591,0.591,0,0,0,1090.19,1481.42Zm7.19,10.08h0Zm-33.36-27.58a0.74,0.74,0,0,1-.44-0.14,0.808,0.808,0,0,1-.21-1.11,14.885,14.885,0,0,1,6.73-5.62,0.773,0.773,0,0,1,1.02.44,0.819,0.819,0,0,1-.43,1.05,13.258,13.258,0,0,0-6.02,5.03A0.773,0.773,0,0,1,1064.02,1463.92Zm26.67,29.33a0.751,0.751,0,0,1-.55-0.24,0.8,0.8,0,0,1,0-1.13l5.16-5.29a0.767,0.767,0,0,1,1.1,0,0.815,0.815,0,0,1,0,1.14l-5.16,5.28A0.751,0.751,0,0,1,1090.69,1493.25Z" transform="translate(-1057 -1452)"/>
</svg>
