<svg xmlns="http://www.w3.org/2000/svg" width="43.062" height="52" viewBox="0 0 43.062 52">
  <metadata><?xpacket begin="﻿" id="W5M0MpCehiHzreSzNTczkc9d"?>
<x:xmpmeta xmlns:x="adobe:ns:meta/" x:xmptk="Adobe XMP Core 5.6-c140 79.160451, 2017/05/06-01:08:21        ">
   <rdf:RDF xmlns:rdf="http://www.w3.org/1999/02/22-rdf-syntax-ns#">
      <rdf:Description rdf:about=""/>
   </rdf:RDF>
</x:xmpmeta>
                                                                                                    
                                                                                                    
                                                                                                    
                                                                                                    
                                                                                                    
                                                                                                    
                                                                                                    
                                                                                                    
                                                                                                    
                                                                                                    
                                                                                                    
                                                                                                    
                                                                                                    
                                                                                                    
                                                                                                    
                                                                                                    
                                                                                                    
                                                                                                    
                                                                                                    
                                                                                                    
                           
<?xpacket end="w"?></metadata>
<defs>
    <style>
      .cls-1 {
        fill: #3ab09f;
        fill-rule: evenodd;
      }
    </style>
  </defs>
  <path class="cls-1" d="M418.808,2156a0.8,0.8,0,0,1-.308-0.05,0.933,0.933,0,0,1-.55.02,27.805,27.805,0,0,1-12.119-7.92c-5.114-5.58-10.7-16.05-8.272-34.23a2.138,2.138,0,0,1,2.1-1.85,24.4,24.4,0,0,0,17.323-7.33,2.189,2.189,0,0,1,1.519-.63,2.148,2.148,0,0,1,1.508.63,24.41,24.41,0,0,0,17.327,7.33,2.136,2.136,0,0,1,2.1,1.85c2.429,18.18-3.157,28.65-8.271,34.23a27.805,27.805,0,0,1-12.12,7.92A1.007,1.007,0,0,1,418.808,2156Zm-0.309-50.12h0a0.249,0.249,0,0,0-.18.08,26.273,26.273,0,0,1-18.646,7.88,0.263,0.263,0,0,0-.258.23c-2.333,17.46,2.952,27.43,7.8,32.72a26.6,26.6,0,0,0,11.225,7.38,0.116,0.116,0,0,0,.13,0,26.608,26.608,0,0,0,11.225-7.38c4.845-5.29,10.13-15.26,7.8-32.72a0.262,0.262,0,0,0-.255-0.23,26.271,26.271,0,0,1-18.648-7.88A0.26,0.26,0,0,0,418.5,2105.88Zm0,42.89a1.5,1.5,0,0,1-.467-0.07,20.042,20.042,0,0,1-8.726-5.7c-3.669-4-7.678-11.51-5.94-24.51a1.788,1.788,0,0,1,1.762-1.55,17.09,17.09,0,0,0,12.1-5.12,1.754,1.754,0,0,1,1.256-.53,1.719,1.719,0,0,1,1.279.53,17.086,17.086,0,0,0,12.105,5.12,1.788,1.788,0,0,1,1.759,1.55c1.738,13-2.271,20.51-5.94,24.51a20.2,20.2,0,0,1-8.732,5.71A1.774,1.774,0,0,1,418.5,2148.77Zm-13.29-29.96c-1.616,12.24,2.083,19.23,5.475,22.93a18.379,18.379,0,0,0,7.838,5.16,18.915,18.915,0,0,0,7.789-5.16c3.393-3.7,7.092-10.69,5.475-22.93a18.923,18.923,0,0,1-13.288-5.61A18.931,18.931,0,0,1,405.211,2118.81Zm26.654,0h0Zm-26.727,0h0Zm13.3-5.67h0Zm0.062,34.68a0.928,0.928,0,0,1-.935-0.93v-33.72a0.935,0.935,0,1,1,1.87,0v33.72A0.929,0.929,0,0,1,418.5,2147.82Zm14.049-16.86h-28.1a0.935,0.935,0,1,1,0-1.87h28.1A0.935,0.935,0,1,1,432.549,2130.96Zm-13.8,14.6a0.93,0.93,0,0,1-.681-1.57l12.864-13.67a0.935,0.935,0,0,1,1.362,1.28l-12.864,13.67A0.953,0.953,0,0,1,418.752,2145.56Zm0-6.17a0.93,0.93,0,0,1-.661-1.59l7.5-7.5a0.934,0.934,0,1,1,1.322,1.32l-7.5,7.5A0.94,0.94,0,0,1,418.752,2139.39Zm-13.151-8.73a0.934,0.934,0,0,1-.664-1.59l12.714-12.85a0.933,0.933,0,1,1,1.329,1.31l-12.714,12.85A0.915,0.915,0,0,1,405.6,2130.66Zm6.731,0a0.935,0.935,0,0,1-.661-1.6l5.984-5.98a0.934,0.934,0,1,1,1.321,1.32l-5.983,5.99A0.938,0.938,0,0,1,412.332,2130.66Zm-8.442-4.48a0.924,0.924,0,0,1-.64-0.25,0.944,0.944,0,0,1-.04-1.33l7.879-8.37a0.937,0.937,0,1,1,1.36,1.29l-7.878,8.37A0.949,0.949,0,0,1,403.89,2126.18Z" transform="translate(-396.969 -2104)"/>
</svg>
