<svg xmlns="http://www.w3.org/2000/svg" width="54" height="52" viewBox="0 0 54 52">
  <metadata><?xpacket begin="﻿" id="W5M0MpCehiHzreSzNTczkc9d"?>
<x:xmpmeta xmlns:x="adobe:ns:meta/" x:xmptk="Adobe XMP Core 5.6-c140 79.160451, 2017/05/06-01:08:21        ">
   <rdf:RDF xmlns:rdf="http://www.w3.org/1999/02/22-rdf-syntax-ns#">
      <rdf:Description rdf:about=""/>
   </rdf:RDF>
</x:xmpmeta>
                                                                                                    
                                                                                                    
                                                                                                    
                                                                                                    
                                                                                                    
                                                                                                    
                                                                                                    
                                                                                                    
                                                                                                    
                                                                                                    
                                                                                                    
                                                                                                    
                                                                                                    
                                                                                                    
                                                                                                    
                                                                                                    
                                                                                                    
                                                                                                    
                                                                                                    
                                                                                                    
                           
<?xpacket end="w"?></metadata>
<defs>
    <style>
      .cls-1 {
        fill: #20aa97;
        fill-rule: evenodd;
      }
    </style>
  </defs>
  <path class="cls-1" d="M441.237,2431.44a0.965,0.965,0,0,1-.97-0.96c0-9.69-9.47-17.57-21.109-17.57s-21.108,7.88-21.108,17.57a0.97,0.97,0,0,1-1.939,0c0-10.75,10.339-19.49,23.047-19.49s23.048,8.74,23.048,19.49A0.965,0.965,0,0,1,441.237,2431.44Zm-38.849,18.54h-3.073a7.281,7.281,0,0,1-7.306-7.23v-5.54a7.2,7.2,0,0,1,3.338-6.06c0.037-.02.077-0.04,0.118-0.06l1.437-.67c0.034-.01.069-0.03,0.1-0.04a7.233,7.233,0,0,1,2.309-.4h3.073a3.113,3.113,0,0,1,3.124,3.09v13.82A3.113,3.113,0,0,1,402.388,2449.98Zm-6.038-17.18a5.263,5.263,0,0,0-2.4,4.41v5.54a5.344,5.344,0,0,0,5.368,5.31h3.073a1.183,1.183,0,0,0,1.186-1.17v-13.82a1.183,1.183,0,0,0-1.186-1.17h-3.073a5.316,5.316,0,0,0-1.643.28Zm4.689,16.25a0.956,0.956,0,0,1-.969-0.95v-17.16a0.969,0.969,0,0,1,1.938,0v17.16A0.956,0.956,0,0,1,401.039,2449.05Zm1.349,0.93h-3.073a7.281,7.281,0,0,1-7.306-7.23v-5.54a7.2,7.2,0,0,1,3.338-6.06c0.037-.02.077-0.04,0.118-0.06l1.437-.67c0.034-.01.069-0.03,0.1-0.04a7.233,7.233,0,0,1,2.309-.4h3.073a3.113,3.113,0,0,1,3.124,3.09v13.82A3.113,3.113,0,0,1,402.388,2449.98Zm-6.038-17.18a5.263,5.263,0,0,0-2.4,4.41v5.54a5.344,5.344,0,0,0,5.368,5.31h3.073a1.183,1.183,0,0,0,1.186-1.17v-13.82a1.183,1.183,0,0,0-1.186-1.17h-3.073a5.316,5.316,0,0,0-1.643.28Zm4.689,16.25a0.956,0.956,0,0,1-.969-0.95v-17.16a0.969,0.969,0,0,1,1.938,0v17.16A0.956,0.956,0,0,1,401.039,2449.05Zm37.661,0.93h-3.074a3.112,3.112,0,0,1-3.122-3.09v-13.82a3.112,3.112,0,0,1,3.122-3.09H438.7a7.234,7.234,0,0,1,2.31.4c0.035,0.01.07,0.03,0.1,0.04l1.437,0.67,0.117,0.06a7.2,7.2,0,0,1,3.338,6.06v5.54A7.281,7.281,0,0,1,438.7,2449.98Zm-3.074-18.08a1.182,1.182,0,0,0-1.184,1.17v13.82a1.182,1.182,0,0,0,1.184,1.17H438.7a5.343,5.343,0,0,0,5.367-5.31v-5.54a5.265,5.265,0,0,0-2.4-4.41l-1.321-.62a5.322,5.322,0,0,0-1.644-.28h-3.074Zm1.351,17.15a0.956,0.956,0,0,1-.969-0.95v-17.16a0.969,0.969,0,0,1,1.938,0v17.16A0.956,0.956,0,0,1,436.977,2449.05ZM422.346,2463h-4.652a3.845,3.845,0,1,1,0-7.69h4.652A3.845,3.845,0,1,1,422.346,2463Zm-4.652-5.77a1.925,1.925,0,1,0,0,3.85h4.652a1.925,1.925,0,1,0,0-3.85h-4.652Zm11.165,2.88h-2.916a0.955,0.955,0,1,1,0-1.91h2.916a2.807,2.807,0,0,0,1.913-.82l10.175-9.54a0.985,0.985,0,0,1,1.37.04,0.957,0.957,0,0,1-.037,1.36l-10.176,9.53A4.729,4.729,0,0,1,428.859,2460.11Zm-8.953-9.46a0.964,0.964,0,0,1-.969-0.96v-3.85a0.969,0.969,0,0,1,1.938,0v3.85A0.965,0.965,0,0,1,419.906,2450.65Zm6.355,2.47a0.962,0.962,0,0,1-.686-0.28,0.945,0.945,0,0,1,0-1.35l2.756-2.73a0.984,0.984,0,0,1,1.37,0,0.955,0.955,0,0,1,0,1.36l-2.755,2.72A0.958,0.958,0,0,1,426.261,2453.12Zm-12.6,0a0.958,0.958,0,0,1-.685-0.28l-2.755-2.72a0.955,0.955,0,0,1,0-1.36,0.984,0.984,0,0,1,1.37,0l2.756,2.73a0.945,0.945,0,0,1,0,1.35A0.962,0.962,0,0,1,413.664,2453.12Z" transform="translate(-392 -2411)"/>
</svg>
