<svg xmlns="http://www.w3.org/2000/svg" width="63" height="69" viewBox="0 0 63 69">
  <metadata><?xpacket begin="﻿" id="W5M0MpCehiHzreSzNTczkc9d"?>
<x:xmpmeta xmlns:x="adobe:ns:meta/" x:xmptk="Adobe XMP Core 5.6-c140 79.160451, 2017/05/06-01:08:21        ">
   <rdf:RDF xmlns:rdf="http://www.w3.org/1999/02/22-rdf-syntax-ns#">
      <rdf:Description rdf:about=""/>
   </rdf:RDF>
</x:xmpmeta>
                                                                                                    
                                                                                                    
                                                                                                    
                                                                                                    
                                                                                                    
                                                                                                    
                                                                                                    
                                                                                                    
                                                                                                    
                                                                                                    
                                                                                                    
                                                                                                    
                                                                                                    
                                                                                                    
                                                                                                    
                                                                                                    
                                                                                                    
                                                                                                    
                                                                                                    
                                                                                                    
                           
<?xpacket end="w"?></metadata>
<defs>
    <style>
      .cls-1 {
        fill: #20aa97;
        fill-rule: evenodd;
      }
    </style>
  </defs>
  <path class="cls-1" d="M964.4,986.83H932.875a2.946,2.946,0,0,1-2.862-2.878V920.864a2.91,2.91,0,0,1,.881-2.012,2.8,2.8,0,0,1,1.981-.864h32.132a3.147,3.147,0,0,1,2,.81L980.8,932.661a2.91,2.91,0,0,1,.845,2.052v25.853a1.331,1.331,0,1,1-2.662,0V934.713a0.233,0.233,0,0,0-.059-0.154l-13.778-13.854a0.223,0.223,0,0,0-.126-0.041H932.875a0.486,0.486,0,0,0-.2.241l0,63.047a0.3,0.3,0,0,0,.2.2H964.4A1.338,1.338,0,0,1,964.4,986.83Zm-6.738-45.485h-8.552a1.338,1.338,0,0,1,0-2.676h8.552A1.338,1.338,0,0,1,957.66,941.345Zm6.775,6.88H942.66a1.338,1.338,0,0,1,0-2.676h21.775A1.338,1.338,0,0,1,964.435,948.225Zm1.119,8.3H946.011a1.338,1.338,0,0,1,0-2.676h19.543A1.338,1.338,0,0,1,965.554,956.527Zm-9.847,9H941.638a1.338,1.338,0,0,1,0-2.676h14.069A1.338,1.338,0,0,1,955.707,965.524Zm14.222,21.484a2.558,2.558,0,0,1-2.561-2.485,2.887,2.887,0,0,1,.113-0.759l1.839-6.554a3.044,3.044,0,0,1,.592-1.053l13.819-13.86a3.248,3.248,0,0,1,2.325-1,3.474,3.474,0,0,1,2.531,1.091l3.444,3.463,0,0a3.406,3.406,0,0,1,.969,2.452,1.341,1.341,0,0,1-.01.168,3.548,3.548,0,0,1-1.01,2.13l-13.754,13.809a2.506,2.506,0,0,1-1.11.609l-6.46,1.886A2.509,2.509,0,0,1,969.929,987.008Zm16.127-23.035a0.607,0.607,0,0,0-.448.222l-13.732,13.763a0.257,0.257,0,0,1-.024.062l-1.751,6.263,6.28-1.832a0.268,0.268,0,0,1,.05-0.014l13.674-13.73a0.827,0.827,0,0,0,.234-0.483,0.7,0.7,0,0,0-.191-0.482L986.7,964.28A0.838,0.838,0,0,0,986.056,963.973Zm1.471,9.629a1.324,1.324,0,0,1-.941-0.392l-6.064-6.1a1.342,1.342,0,0,1,0-1.892,1.324,1.324,0,0,1,1.881,0l6.065,6.1a1.344,1.344,0,0,1,0,1.892A1.325,1.325,0,0,1,987.527,973.6Zm-8.6-37.216h-14.69a1.334,1.334,0,0,1-1.331-1.338V920.275a1.331,1.331,0,1,1,2.661,0V933.71h13.36A1.338,1.338,0,0,1,978.927,936.386Z" transform="translate(-930 -918)"/>
</svg>
