<svg xmlns="http://www.w3.org/2000/svg" width="48" height="44" viewBox="0 0 48 44">
  <metadata><?xpacket begin="﻿" id="W5M0MpCehiHzreSzNTczkc9d"?>
<x:xmpmeta xmlns:x="adobe:ns:meta/" x:xmptk="Adobe XMP Core 5.6-c140 79.160451, 2017/05/06-01:08:21        ">
   <rdf:RDF xmlns:rdf="http://www.w3.org/1999/02/22-rdf-syntax-ns#">
      <rdf:Description rdf:about=""/>
   </rdf:RDF>
</x:xmpmeta>
                                                                                                    
                                                                                                    
                                                                                                    
                                                                                                    
                                                                                                    
                                                                                                    
                                                                                                    
                                                                                                    
                                                                                                    
                                                                                                    
                                                                                                    
                                                                                                    
                                                                                                    
                                                                                                    
                                                                                                    
                                                                                                    
                                                                                                    
                                                                                                    
                                                                                                    
                                                                                                    
                           
<?xpacket end="w"?></metadata>
<defs>
    <style>
      .cls-1 {
        fill: #20aa97;
        fill-rule: evenodd;
      }
    </style>
  </defs>
  <path class="cls-1" d="M1084.03,1834.99h-0.14a12.146,12.146,0,0,1-2.24-.22,31.214,31.214,0,0,1-12.28-5.38,41.1,41.1,0,0,1-10.17-10.09,31.807,31.807,0,0,1-3.91-7.28,16.229,16.229,0,0,1-1.29-6.6l0.01-.1a7.32,7.32,0,0,1,2.74-5.54,13.935,13.935,0,0,1,3.95-2.23,5.337,5.337,0,0,1,1.59-.25,4.6,4.6,0,0,1,3.77,1.89c0.96,1.35,1.94,2.73,2.91,4.03l0.7,0.96c0.35,0.48.71,0.98,1.06,1.55a4.5,4.5,0,0,1-.15,4.89,7.087,7.087,0,0,1-1.4,1.6c-0.34.3-.69,0.6-1.04,0.89,0.14,0.19.29,0.38,0.45,0.58a50.775,50.775,0,0,0,8.09,7.58l0.25-.31c0.27-.33.53-0.66,0.78-0.98a6.682,6.682,0,0,1,1.07-1l0.03-.03c0.02-.02.05-0.04,0.07-0.06a4.681,4.681,0,0,1,5.54-.16c1.92,1.21,3.94,2.53,6.35,4.14a4.418,4.418,0,0,1,2.01,5.03,11.106,11.106,0,0,1-3.68,5.62,5.841,5.841,0,0,1-.76.5l-0.28.14A10.649,10.649,0,0,1,1084.03,1834.99Zm-21.74-36.09a3.363,3.363,0,0,0-1.06.17,12.425,12.425,0,0,0-3.49,1.98,5.822,5.822,0,0,0-2.11,4.39l-0.01.09a14.588,14.588,0,0,0,1.21,5.94,30.326,30.326,0,0,0,3.7,6.91,39.587,39.587,0,0,0,9.77,9.69,29.529,29.529,0,0,0,11.66,5.12,9.807,9.807,0,0,0,1.93.2h0.14a8.916,8.916,0,0,0,3.36-.7l0.22-.11a3.277,3.277,0,0,0,.5-0.33,9.527,9.527,0,0,0,3.1-4.79,2.849,2.849,0,0,0-1.32-3.24c-0.01,0-.01-0.01-0.02-0.01-2.41-1.61-4.43-2.93-6.35-4.15a3.062,3.062,0,0,0-3.59.06l-0.03.04c-0.03.02-.06,0.05-0.09,0.07a4.373,4.373,0,0,0-.83.76c-0.24.29-.5,0.63-0.77,0.96l-0.74.93a0.828,0.828,0,0,1-1.13.15,52.133,52.133,0,0,1-8.99-8.31c-0.19-.22-0.36-0.44-0.52-0.65s-0.3-.39-0.46-0.58a0.794,0.794,0,0,1-.18-0.61,0.77,0.77,0,0,1,.32-0.55c0.53-.39,1.08-0.87,1.61-1.33a5.755,5.755,0,0,0,1.11-1.27,2.924,2.924,0,0,0,.12-3.16c-0.33-.52-0.66-0.97-1.01-1.45l-0.69-.96c-0.97-1.3-1.96-2.69-2.91-4.03A2.969,2.969,0,0,0,1062.29,1798.9Zm26.81,17.42a12.167,12.167,0,0,1-4.29-.74,11.145,11.145,0,0,1-2.98-1.48c-0.34.03-.64,0.03-0.97,0.03h-0.69a8.381,8.381,0,0,1-2.8-.56,0.9,0.9,0,0,1-.19-0.04,3.5,3.5,0,0,1-2.52-2.67,2.913,2.913,0,0,1,1.31-2.76l0.75-.53a12.951,12.951,0,0,1,.12-8.07,12.739,12.739,0,0,1,4-5.63,13.1,13.1,0,0,1,12.47-2.17,12.584,12.584,0,0,1,7.4,6.48,12.421,12.421,0,0,1,.58,9.61,12.768,12.768,0,0,1-3.99,5.62A13.2,13.2,0,0,1,1089.1,1816.32Zm-7.06-3.86a0.775,0.775,0,0,1,.47.15,9.844,9.844,0,0,0,2.82,1.45,10.79,10.79,0,0,0,3.77.65,11.549,11.549,0,0,0,7.17-2.55,11.1,11.1,0,0,0,3.49-4.91,10.834,10.834,0,0,0-.52-8.38,11.007,11.007,0,0,0-6.45-5.66,11.513,11.513,0,0,0-10.93,1.91,11.043,11.043,0,0,0-3.41,12.48,0.8,0.8,0,0,1-.29.92l-1.25.89a1.3,1.3,0,0,0-.63,1.26,1.818,1.818,0,0,0,1.39,1.32,0.658,0.658,0,0,1,.15.04,6.977,6.977,0,0,0,2.35.5h0.69a5.825,5.825,0,0,0,1.05-.06A0.57,0.57,0,0,1,1082.04,1812.46Zm8.95-12.08h-4.69a0.8,0.8,0,1,1,0-1.6h4.69A0.8,0.8,0,1,1,1090.99,1800.38Zm3.71,3.94h-10.09a0.805,0.805,0,1,1,0-1.61h10.09A0.805,0.805,0,1,1,1094.7,1804.32Zm-1.26,4.22h-5.96a0.805,0.805,0,1,1,0-1.61h5.96A0.805,0.805,0,1,1,1093.44,1808.54Z" transform="translate(-1054 -1791)"/>
</svg>
