<svg xmlns="http://www.w3.org/2000/svg" width="71" height="69" viewBox="0 0 71 69">
  <metadata><?xpacket begin="﻿" id="W5M0MpCehiHzreSzNTczkc9d"?>
<x:xmpmeta xmlns:x="adobe:ns:meta/" x:xmptk="Adobe XMP Core 5.6-c140 79.160451, 2017/05/06-01:08:21        ">
   <rdf:RDF xmlns:rdf="http://www.w3.org/1999/02/22-rdf-syntax-ns#">
      <rdf:Description rdf:about=""/>
   </rdf:RDF>
</x:xmpmeta>
                                                                                                    
                                                                                                    
                                                                                                    
                                                                                                    
                                                                                                    
                                                                                                    
                                                                                                    
                                                                                                    
                                                                                                    
                                                                                                    
                                                                                                    
                                                                                                    
                                                                                                    
                                                                                                    
                                                                                                    
                                                                                                    
                                                                                                    
                                                                                                    
                                                                                                    
                                                                                                    
                           
<?xpacket end="w"?></metadata>
<defs>
    <style>
      .cls-1 {
        fill: #20aa97;
        fill-rule: evenodd;
      }
    </style>
  </defs>
  <path class="cls-1" d="M667.733,945.147a1.272,1.272,0,0,1-1.274-1.272c0-12.858-12.455-23.32-27.762-23.32s-27.761,10.462-27.761,23.32a1.275,1.275,0,0,1-2.55,0c0-14.261,13.6-25.863,30.311-25.863s30.311,11.6,30.311,25.863A1.273,1.273,0,0,1,667.733,945.147Zm-51.091,24.591H612.6a9.609,9.609,0,0,1-9.609-9.587V952.8a9.557,9.557,0,0,1,4.391-8.036,1.149,1.149,0,0,1,.154-0.086l1.891-.883a1.17,1.17,0,0,1,.136-0.055,9.5,9.5,0,0,1,3.037-.529h4.042a4.108,4.108,0,0,1,4.108,4.1V965.64A4.107,4.107,0,0,1,616.642,969.738ZM608.7,946.944a7.022,7.022,0,0,0-3.159,5.857v7.35a7.059,7.059,0,0,0,7.059,7.043h4.042a1.558,1.558,0,0,0,1.558-1.554V947.311a1.558,1.558,0,0,0-1.558-1.555H612.6a6.92,6.92,0,0,0-2.161.375Zm6.167,21.57a1.272,1.272,0,0,1-1.275-1.272V944.484a1.275,1.275,0,0,1,2.55,0v22.758A1.273,1.273,0,0,1,614.867,968.514Zm1.775,1.224H612.6a9.609,9.609,0,0,1-9.609-9.587V952.8a9.557,9.557,0,0,1,4.391-8.036,1.149,1.149,0,0,1,.154-0.086l1.891-.883a1.17,1.17,0,0,1,.136-0.055,9.5,9.5,0,0,1,3.037-.529h4.042a4.108,4.108,0,0,1,4.108,4.1V965.64A4.107,4.107,0,0,1,616.642,969.738ZM608.7,946.944a7.022,7.022,0,0,0-3.159,5.857v7.35a7.059,7.059,0,0,0,7.059,7.043h4.042a1.558,1.558,0,0,0,1.558-1.554V947.311a1.558,1.558,0,0,0-1.558-1.555H612.6a6.92,6.92,0,0,0-2.161.375Zm6.167,21.57a1.272,1.272,0,0,1-1.275-1.272V944.484a1.275,1.275,0,0,1,2.55,0v22.758A1.273,1.273,0,0,1,614.867,968.514Zm49.53,1.224h-4.042a4.106,4.106,0,0,1-4.106-4.1V947.311a4.107,4.107,0,0,1,4.106-4.1H664.4a9.5,9.5,0,0,1,3.039.529,1.45,1.45,0,0,1,.137.055l1.89,0.884a1.441,1.441,0,0,1,.153.085,9.558,9.558,0,0,1,4.39,8.036v7.35A9.609,9.609,0,0,1,664.4,969.738Zm-4.042-23.982a1.557,1.557,0,0,0-1.557,1.555V965.64a1.557,1.557,0,0,0,1.557,1.554H664.4a7.06,7.06,0,0,0,7.06-7.043V952.8a7.021,7.021,0,0,0-3.16-5.857l-1.737-.813a6.931,6.931,0,0,0-2.163-.375h-4.042Zm1.777,22.758a1.272,1.272,0,0,1-1.275-1.272V944.484a1.275,1.275,0,0,1,2.549,0v22.758A1.272,1.272,0,0,1,662.132,968.514Zm-19.243,18.5h-6.118a5.1,5.1,0,1,1,0-10.195h6.118A5.1,5.1,0,1,1,642.889,987.011Zm-6.118-7.652a2.554,2.554,0,1,0,0,5.108h6.118a2.554,2.554,0,1,0,0-5.108h-6.118Zm14.684,3.826H647.62a1.272,1.272,0,1,1,0-2.543h3.835a3.651,3.651,0,0,0,2.516-1.079l13.382-12.655a1.273,1.273,0,1,1,1.752,1.846l-13.382,12.655A6.232,6.232,0,0,1,651.455,983.185ZM639.68,970.634a1.273,1.273,0,0,1-1.275-1.272v-5.114a1.275,1.275,0,0,1,2.55,0v5.114A1.273,1.273,0,0,1,639.68,970.634Zm8.358,3.278a1.273,1.273,0,0,1-.9-2.172l3.624-3.616a1.274,1.274,0,0,1,1.8,1.8l-3.624,3.616A1.274,1.274,0,0,1,648.038,973.912Zm-16.567,0a1.274,1.274,0,0,1-.9-0.373l-3.623-3.616a1.273,1.273,0,1,1,1.8-1.8l3.624,3.616A1.273,1.273,0,0,1,631.471,973.912Z" transform="translate(-603 -918)"/>
</svg>
