<svg xmlns="http://www.w3.org/2000/svg" width="41.97" height="56" viewBox="0 0 41.97 56">
  <metadata><?xpacket begin="﻿" id="W5M0MpCehiHzreSzNTczkc9d"?>
<x:xmpmeta xmlns:x="adobe:ns:meta/" x:xmptk="Adobe XMP Core 5.6-c140 79.160451, 2017/05/06-01:08:21        ">
   <rdf:RDF xmlns:rdf="http://www.w3.org/1999/02/22-rdf-syntax-ns#">
      <rdf:Description rdf:about=""/>
   </rdf:RDF>
</x:xmpmeta>
                                                                                                    
                                                                                                    
                                                                                                    
                                                                                                    
                                                                                                    
                                                                                                    
                                                                                                    
                                                                                                    
                                                                                                    
                                                                                                    
                                                                                                    
                                                                                                    
                                                                                                    
                                                                                                    
                                                                                                    
                                                                                                    
                                                                                                    
                                                                                                    
                                                                                                    
                                                                                                    
                           
<?xpacket end="w"?></metadata>
<defs>
    <style>
      .cls-1 {
        fill: #20aa97;
        fill-rule: evenodd;
      }
    </style>
  </defs>
  <path class="cls-1" d="M1078.13,2144.13a4.452,4.452,0,0,1-3.28-1.44l-0.82-.91a0.375,0.375,0,0,0-.4-0.08l-1.14.47a4.45,4.45,0,0,1-5.98-2.78l-0.34-1.17a0.333,0.333,0,0,0-.32-0.24l-1.23-.05a4.435,4.435,0,0,1-3.24-1.61,4.316,4.316,0,0,1-.92-3.45l0.21-1.2a0.35,0.35,0,0,0-.18-0.36l-1.09-.57a4.368,4.368,0,0,1-2.21-2.84,4.29,4.29,0,0,1,.69-3.5l0.71-.99a0.345,0.345,0,0,0,0-.41l-0.72-.97a4.289,4.289,0,0,1-.75-3.5,4.35,4.35,0,0,1,2.16-2.86l1.08-.6a0.35,0.35,0,0,0,.18-0.36l-0.23-1.19a4.3,4.3,0,0,1,.87-3.47,4.4,4.4,0,0,1,3.22-1.65l1.22-.07a0.355,0.355,0,0,0,.32-0.25l0.32-1.17a4.4,4.4,0,0,1,4.26-3.2,4.669,4.669,0,0,1,1.67.32l1.15,0.47a0.375,0.375,0,0,0,.4-0.1l0.8-.91a4.452,4.452,0,0,1,6.62-.05l0.82,0.9a0.39,0.39,0,0,0,.4.09l1.13-.48a4.506,4.506,0,0,1,1.74-.35,4.432,4.432,0,0,1,4.25,3.13l0.35,1.15a0.349,0.349,0,0,0,.32.26l1.24,0.05a4.46,4.46,0,0,1,3.24,1.6,4.376,4.376,0,0,1,.92,3.46l-0.21,1.2a0.329,0.329,0,0,0,.18.35l1.09,0.58a4.357,4.357,0,0,1,2.21,2.83,4.31,4.31,0,0,1-.7,3.51l-0.7.99a0.331,0.331,0,0,0-.01.4l0.73,0.99a4.266,4.266,0,0,1,.75,3.49,4.383,4.383,0,0,1-2.17,2.87l-1.07.59a0.329,0.329,0,0,0-.18.36l0.23,1.19a4.332,4.332,0,0,1-.87,3.47,4.417,4.417,0,0,1-3.22,1.65l-1.23.08a0.348,0.348,0,0,0-.32.24l-0.33,1.18a4.41,4.41,0,0,1-4.25,3.2,4.476,4.476,0,0,1-1.67-.33l-1.15-.46a0.35,0.35,0,0,0-.4.09l-0.81.92A4.471,4.471,0,0,1,1078.13,2144.13Zm-4.37-4.45a2.423,2.423,0,0,1,1.78.78l0.81,0.9a2.509,2.509,0,0,0,3.6-.03l0.8-.91a2.428,2.428,0,0,1,2.69-.64l1.15,0.47a2.413,2.413,0,0,0,3.21-1.55l0.33-1.18a2.357,2.357,0,0,1,2.15-1.71l1.23-.07a2.413,2.413,0,0,0,1.75-.9,2.349,2.349,0,0,0,.47-1.88l-0.23-1.18a2.322,2.322,0,0,1,1.18-2.47l1.07-.59a2.364,2.364,0,0,0,1.18-1.55,2.338,2.338,0,0,0-.4-1.9h-0.01l-0.72-.99a2.265,2.265,0,0,1-.01-2.72l0.7-.99a2.344,2.344,0,0,0,.38-1.9,2.389,2.389,0,0,0-1.2-1.54l-1.09-.57a2.337,2.337,0,0,1-1.22-2.43l0.21-1.21a2.366,2.366,0,0,0-.5-1.88,2.418,2.418,0,0,0-1.75-.87l-1.23-.05a2.35,2.35,0,0,1-2.18-1.68l-0.35-1.14a2.406,2.406,0,0,0-2.31-1.71,2.5,2.5,0,0,0-.94.19l-1.14.48a2.417,2.417,0,0,1-2.7-.6l-0.82-.89a2.488,2.488,0,0,0-3.59.02l-0.79.91a2.428,2.428,0,0,1-2.69.64l-1.15-.46a2.416,2.416,0,0,0-3.22,1.55l-0.32,1.17a2.332,2.332,0,0,1-2.15,1.71l-1.23.08a2.352,2.352,0,0,0-2.21,2.77l0.22,1.19a2.3,2.3,0,0,1-1.18,2.46l-1.07.59a2.39,2.39,0,0,0-1.18,1.56,2.32,2.32,0,0,0,.41,1.89l0.73,0.98a2.3,2.3,0,0,1,.01,2.73l-0.7.98a2.337,2.337,0,0,0,.81,3.44l1.09,0.58a2.316,2.316,0,0,1,1.22,2.43l-0.21,1.21a2.344,2.344,0,0,0,.5,1.87,2.418,2.418,0,0,0,1.75.87l1.24,0.05a2.345,2.345,0,0,1,2.17,1.69l0.34,1.16a2.4,2.4,0,0,0,2.3,1.69,2.371,2.371,0,0,0,.95-0.19l1.13-.47A2.311,2.311,0,0,1,1073.76,2139.68Zm4.25-3.36a13.347,13.347,0,1,1,13.56-13.34A13.468,13.468,0,0,1,1078.01,2136.32Zm0-24.7a11.356,11.356,0,1,0,11.54,11.36A11.46,11.46,0,0,0,1078.01,2111.62Zm-0.63,14.93a1.008,1.008,0,0,1-.67-0.26l-2.87-2.55a0.968,0.968,0,0,1-.07-1.4,1.009,1.009,0,0,1,1.42-.07l2.15,1.91,4.36-4.31a1.02,1.02,0,0,1,1.43,0,0.984,0.984,0,0,1,0,1.4l-5.03,4.98A1.015,1.015,0,0,1,1077.38,2126.55Zm9.49,31.46a0.96,0.96,0,0,1-.33-0.06l-8.08-2.8-8.07,2.8a1.035,1.035,0,0,1-.92-0.12,1,1,0,0,1-.43-0.82v-15.05a1.015,1.015,0,0,1,2.03,0v13.65l7.06-2.45a0.965,0.965,0,0,1,.67,0l7.06,2.45v-13.65a1.01,1.01,0,0,1,2.02,0v15.05a0.987,0.987,0,0,1-.42.82A1.05,1.05,0,0,1,1086.87,2158.01Z" transform="translate(-1057.03 -2102)"/>
</svg>
