<svg xmlns="http://www.w3.org/2000/svg" width="60" height="69" viewBox="0 0 60 69">
  <metadata><?xpacket begin="﻿" id="W5M0MpCehiHzreSzNTczkc9d"?>
<x:xmpmeta xmlns:x="adobe:ns:meta/" x:xmptk="Adobe XMP Core 5.6-c140 79.160451, 2017/05/06-01:08:21        ">
   <rdf:RDF xmlns:rdf="http://www.w3.org/1999/02/22-rdf-syntax-ns#">
      <rdf:Description rdf:about=""/>
   </rdf:RDF>
</x:xmpmeta>
                                                                                                    
                                                                                                    
                                                                                                    
                                                                                                    
                                                                                                    
                                                                                                    
                                                                                                    
                                                                                                    
                                                                                                    
                                                                                                    
                                                                                                    
                                                                                                    
                                                                                                    
                                                                                                    
                                                                                                    
                                                                                                    
                                                                                                    
                                                                                                    
                                                                                                    
                                                                                                    
                           
<?xpacket end="w"?></metadata>
<defs>
    <style>
      .cls-1 {
        fill: #20aa97;
        fill-rule: evenodd;
      }
    </style>
  </defs>
  <path class="cls-1" d="M337.314,667.6H306.773A2.833,2.833,0,0,1,304,664.861V604.735a2.872,2.872,0,0,1,2.771-2.742H337.9a3.127,3.127,0,0,1,1.939.772L353.2,615.978a2.748,2.748,0,0,1,.817,1.956v24.638a1.289,1.289,0,0,1-2.578,0V617.934a0.226,0.226,0,0,0-.057-0.148l-13.347-13.2a0.217,0.217,0,0,0-.122-0.039h-31.14a0.472,0.472,0,0,0-.2.23l0,60.087a0.291,0.291,0,0,0,.195.192h30.539A1.276,1.276,0,1,1,337.314,667.6Zm14.125-48.349H337.207a1.281,1.281,0,0,1-1.289-1.275V603.9a1.289,1.289,0,0,1,2.578,0v12.8h12.943A1.275,1.275,0,1,1,351.439,619.255Zm-22.43,2.5h-8.286a1.276,1.276,0,1,1,0-2.551h8.286A1.276,1.276,0,1,1,329.009,621.75Zm6.565,6.557h-21.1a1.276,1.276,0,1,1,0-2.551h21.1A1.276,1.276,0,1,1,335.574,628.307Zm1.084,7.912H317.724a1.276,1.276,0,1,1,0-2.551h18.934A1.276,1.276,0,1,1,336.658,636.219Zm-9.541,8.574h-13.63a1.275,1.275,0,1,1,0-2.55h13.63A1.275,1.275,0,1,1,327.117,644.793ZM349.628,671h-3.817a3.676,3.676,0,0,1-3.639-2.88,3.85,3.85,0,0,1-4.6-.487l-2.719-2.691a3.674,3.674,0,0,1-.479-4.577,3.606,3.606,0,0,1-2.926-3.571v-3.776a3.657,3.657,0,0,1,2.908-3.6,3.545,3.545,0,0,1,.5-4.548l2.719-2.691a3.777,3.777,0,0,1,4.628-.472,3.622,3.622,0,0,1,3.609-2.9h3.817a3.679,3.679,0,0,1,3.639,2.876,3.643,3.643,0,0,1,4.6.492l2.711,2.68a8.066,8.066,0,0,0,3.414,8.159v3.776a3.656,3.656,0,0,1-2.907,3.6,3.546,3.546,0,0,1-.5,4.548l-2.721,2.691a3.836,3.836,0,0,1-4.627.476A3.625,3.625,0,0,1,349.628,671Zm-6.536-6.368a1.318,1.318,0,0,1,.492.1,1.282,1.282,0,0,1,.778.958l0.307,1.735a1.113,1.113,0,0,0,1.142,1.029h3.817a1.049,1.049,0,0,0,1.087-.907l0.319-1.85a1.279,1.279,0,0,1,.771-0.963,1.3,1.3,0,0,1,1.236.131l1.447,1a1.114,1.114,0,0,0,1.554-.028l2.72-2.692a1.007,1.007,0,0,0,.149-1.353l-1.125-1.567a1.262,1.262,0,0,1-.137-1.221,1.285,1.285,0,0,1,.968-0.77l1.755-.3a1.109,1.109,0,0,0,1.038-1.129v-3.776a1.043,1.043,0,0,0-.913-1.075l-1.873-.315a1.289,1.289,0,0,1-.974-0.763,1.263,1.263,0,0,1,.133-1.222l1.008-1.432a1.09,1.09,0,0,0,0-1.515,0.261,0.261,0,0,1-.024-0.023l-2.72-2.69a1.036,1.036,0,0,0-1.369-.147l-1.582,1.111a1.3,1.3,0,0,1-1.236.137,1.277,1.277,0,0,1-.778-0.96l-0.306-1.735a1.114,1.114,0,0,0-1.143-1.027h-3.817a1.047,1.047,0,0,0-1.086.9l-0.319,1.853a1.272,1.272,0,0,1-.773.961,1.3,1.3,0,0,1-1.235-.129l-1.447-1a1.2,1.2,0,0,0-1.578.053l-2.695,2.667a1.009,1.009,0,0,0-.15,1.354l1.124,1.565a1.264,1.264,0,0,1,.14,1.223,1.291,1.291,0,0,1-.969.769l-1.755.3a1.11,1.11,0,0,0-1.04,1.129v3.776a1.045,1.045,0,0,0,.917,1.075l1.872,0.313a1.289,1.289,0,0,1,.971.765,1.26,1.26,0,0,1-.131,1.223l-1.009,1.432a1.165,1.165,0,0,0,.053,1.559l2.7,2.669a1.262,1.262,0,0,0,1.355.158c0.034-.029.069-0.056,0.105-0.083l1.492-1.04A1.3,1.3,0,0,1,343.092,664.63Zm5.179-2.389a7.338,7.338,0,1,1,7.417-7.337A7.385,7.385,0,0,1,348.271,662.241Zm0-12.124a4.787,4.787,0,1,0,4.839,4.787A4.818,4.818,0,0,0,348.271,650.117Z" transform="translate(-304 -602)"/>
</svg>
