<svg xmlns="http://www.w3.org/2000/svg" width="75.031" height="69" viewBox="0 0 75.031 69">
  <metadata><?xpacket begin="﻿" id="W5M0MpCehiHzreSzNTczkc9d"?>
<x:xmpmeta xmlns:x="adobe:ns:meta/" x:xmptk="Adobe XMP Core 5.6-c140 79.160451, 2017/05/06-01:08:21        ">
   <rdf:RDF xmlns:rdf="http://www.w3.org/1999/02/22-rdf-syntax-ns#">
      <rdf:Description rdf:about=""/>
   </rdf:RDF>
</x:xmpmeta>
                                                                                                    
                                                                                                    
                                                                                                    
                                                                                                    
                                                                                                    
                                                                                                    
                                                                                                    
                                                                                                    
                                                                                                    
                                                                                                    
                                                                                                    
                                                                                                    
                                                                                                    
                                                                                                    
                                                                                                    
                                                                                                    
                                                                                                    
                                                                                                    
                                                                                                    
                                                                                                    
                           
<?xpacket end="w"?></metadata>
<defs>
    <style>
      .cls-1 {
        fill: #20aa97;
        fill-rule: evenodd;
      }
    </style>
  </defs>
  <path class="cls-1" d="M955.4,654.057a26.029,26.029,0,1,1,26.376-26.027A26.233,26.233,0,0,1,955.4,654.057Zm0-49.52a23.5,23.5,0,1,0,23.809,23.493A23.679,23.679,0,0,0,955.4,604.537Zm23.555,47.772a1.29,1.29,0,0,1-.908-0.371l-5.7-5.622a1.255,1.255,0,0,1,0-1.791,1.3,1.3,0,0,1,1.815,0l5.7,5.622a1.253,1.253,0,0,1,0,1.791A1.29,1.29,0,0,1,978.958,652.309Zm10.98,18.705a5.957,5.957,0,0,1-4.195-1.712l-10.41-10.273a3.5,3.5,0,0,1,0-4.991l6.446-6.362a3.618,3.618,0,0,1,5.059,0l10.409,10.273a5.808,5.808,0,0,1,0,8.282l-3.111,3.072A5.961,5.961,0,0,1,989.938,671.014Zm-5.629-21.838a1.015,1.015,0,0,0-.715.292l-6.446,6.361a0.988,0.988,0,0,0,0,1.409l10.41,10.273a3.407,3.407,0,0,0,4.763,0l3.111-3.072h0a3.3,3.3,0,0,0,0-4.7l-10.409-10.272A1.014,1.014,0,0,0,984.309,649.176Zm-59.057.512a1.287,1.287,0,0,1-.915-0.378,1.255,1.255,0,0,1,.015-1.792l8.358-8.112a1.3,1.3,0,0,1,1.815.015,1.254,1.254,0,0,1-.015,1.791l-8.358,8.112A1.285,1.285,0,0,1,925.252,649.688ZM978.7,616.275a1.284,1.284,0,0,1-.915-0.379,1.254,1.254,0,0,1,.015-1.791l8.358-8.112a1.3,1.3,0,0,1,1.815.014,1.254,1.254,0,0,1-.015,1.791l-8.358,8.113A1.285,1.285,0,0,1,978.7,616.275Zm10.369-2.332a1.275,1.275,0,0,1-1.284-1.266v-6.663h-6.752a1.267,1.267,0,1,1,0-2.533h8.036a1.275,1.275,0,0,1,1.284,1.266v7.93A1.275,1.275,0,0,1,989.067,613.943Zm-49.137,20.4a1.292,1.292,0,0,1-.919-0.383,1.254,1.254,0,0,1,.023-1.791l10.5-10.094a1.3,1.3,0,0,1,1.786,0l9.7,9.214,8.934-9.179a1.3,1.3,0,0,1,1.815-.036,1.255,1.255,0,0,1,.038,1.791l-9.825,10.094a1.3,1.3,0,0,1-.9.389,1.349,1.349,0,0,1-.915-0.355l-9.729-9.243-9.606,9.238A1.291,1.291,0,0,1,939.93,634.344Z" transform="translate(-923.969 -602)"/>
</svg>
